<svg width="30" height="24" viewBox="0 0 30 24" fill="none" xmlns="http://www.w3.org/2000/svg">
<path d="M0 4.5C0 3.50544 0.395088 2.55161 1.09835 1.84835C1.80161 1.14509 2.75544 0.75 3.75 0.75H26.25C27.2446 0.75 28.1984 1.14509 28.9016 1.84835C29.6049 2.55161 30 3.50544 30 4.5V19.5C30 20.4946 29.6049 21.4484 28.9016 22.1516C28.1984 22.8549 27.2446 23.25 26.25 23.25H3.75C2.75544 23.25 1.80161 22.8549 1.09835 22.1516C0.395088 21.4484 0 20.4946 0 19.5V4.5ZM3.75 2.625C3.25272 2.625 2.77581 2.82254 2.42417 3.17417C2.07254 3.52581 1.875 4.00272 1.875 4.5V6.375H28.125V4.5C28.125 4.00272 27.9275 3.52581 27.5758 3.17417C27.2242 2.82254 26.7473 2.625 26.25 2.625H3.75ZM28.125 10.125H1.875V19.5C1.875 19.9973 2.07254 20.4742 2.42417 20.8258C2.77581 21.1775 3.25272 21.375 3.75 21.375H26.25C26.7473 21.375 27.2242 21.1775 27.5758 20.8258C27.9275 20.4742 28.125 19.9973 28.125 19.5V10.125Z" fill="currentColor"/>
<path d="M3.75 15.75C3.75 15.2527 3.94754 14.7758 4.29917 14.4242C4.65081 14.0725 5.12772 13.875 5.625 13.875H7.5C7.99728 13.875 8.47419 14.0725 8.82582 14.4242C9.17746 14.7758 9.375 15.2527 9.375 15.75V17.625C9.375 18.1223 9.17746 18.5992 8.82582 18.9508C8.47419 19.3025 7.99728 19.5 7.5 19.5H5.625C5.12772 19.5 4.65081 19.3025 4.29917 18.9508C3.94754 18.5992 3.75 18.1223 3.75 17.625V15.75Z" fill="currentColor"/>
</svg>
