<svg width="104" height="120" viewBox="0 0 104 120" fill="none" xmlns="http://www.w3.org/2000/svg">
<path fill-rule="evenodd" clip-rule="evenodd" d="M9.76397 0.151382C8.4626 0.508678 8.50034 0.171445 8.50034 11.4235V21.6156H6.66682C5.65832 21.6156 4.4788 21.7239 4.04542 21.8564C3.04776 22.1612 1.59002 23.4608 1.01451 24.5583L0.571289 25.4035V70.7566V116.11L1.01511 116.956C1.61571 118.102 2.58948 119.057 3.68048 119.572C4.58359 119.999 4.65445 120 29.7783 120C50.675 120 55.1075 119.952 55.7735 119.717C56.9974 119.287 58.2691 118.125 58.8074 116.945L59.2824 115.905L59.2844 91.9999L59.2864 68.0948H79.1235C101.617 68.0948 100.151 68.2011 101.874 66.4443C103.518 64.7671 103.47 65.3105 103.405 49.1307C103.351 35.898 103.325 34.9731 102.974 34.1551C102.506 33.0636 100.932 31.5984 99.8823 31.2777C99.2901 31.0967 93.9833 31.0343 79.2049 31.0343H59.3241L59.2551 28.1165C59.1902 25.38 59.1523 25.1404 58.644 24.2581C58.0364 23.2041 56.9711 22.2898 55.8919 21.8963C55.4957 21.7517 54.3356 21.6295 53.3145 21.6246L51.4577 21.6156L51.4547 11.6338C51.4525 4.11338 51.3905 1.52856 51.2034 1.1514C51.0667 0.876005 50.6686 0.480216 50.3187 0.271777C49.7472 -0.0689345 49.6139 -0.077944 49.0057 0.181275C48.6334 0.339755 47.5032 1.08547 46.4943 1.83794L44.6598 3.20611L42.5888 1.69502C41.4496 0.863722 40.3588 0.125171 40.1645 0.0535066C39.6223 -0.146743 38.8995 0.218335 36.7745 1.76587L34.8214 3.1883L32.6883 1.61824C31.1718 0.501921 30.3831 0.0481859 29.9589 0.0481859C29.3876 0.0481859 28.7228 0.45237 26.0394 2.43091L25.0104 3.18973L23.044 1.737C20.7456 0.0387644 20.3365 -0.153293 19.6157 0.126197C19.2009 0.287133 17.0009 1.7974 15.4117 3.01241C15.2846 3.10967 14.3973 2.58939 13.2361 1.73679C10.9555 0.0625175 10.6297 -0.0863381 9.76397 0.151382ZM22.2053 5.74711C24.8484 7.69269 25.1252 7.71808 27.1978 6.20474C28.0098 5.61177 28.9577 4.92175 29.3043 4.67133L29.9343 4.21596L32.0143 5.74895C34.4311 7.53011 35.0215 7.66177 36.3223 6.70986C36.7528 6.39475 37.6989 5.70739 38.4246 5.18219L39.7438 4.22742L41.8332 5.7551C44.3946 7.62778 44.8126 7.69023 46.507 6.45249L47.6437 5.62221V17.5092V29.3962H29.8786H12.1136V17.5084C12.1136 8.05613 12.165 5.65067 12.3645 5.76759C12.5026 5.84846 13.0339 6.22234 13.5456 6.59868C14.9941 7.66382 15.4849 7.57045 17.9604 5.75919C19.1056 4.92113 20.0599 4.23009 20.081 4.22354C20.102 4.21698 21.0579 4.9025 22.2053 5.74711ZM19.34 11.5261C18.2057 11.7349 17.515 13.0056 17.9516 14.0808C18.4387 15.2807 18.3121 15.2682 30.0848 15.2682H40.8496L41.4364 14.6697C42.5031 13.5816 42.1054 12.0005 40.6624 11.5916C39.9315 11.3846 20.4334 11.3246 19.34 11.5261ZM18.7985 20.1847C18.1904 20.4345 17.6685 21.5242 17.8331 22.2008C17.9054 22.4983 18.1543 22.9489 18.3861 23.2024L18.8079 23.6631H29.9232H41.0385L41.5309 23.1213C42.2315 22.3502 42.1944 21.3492 41.4364 20.576L40.8496 19.9775L30.0447 19.9904C24.1019 19.9976 19.0411 20.085 18.7985 20.1847ZM8.50034 27.3227V29.3442L7.48 29.4441C6.15253 29.5742 5.59871 30.1094 5.59871 31.2617C5.59871 31.9264 5.71533 32.2038 6.15735 32.5916L6.7162 33.0818H29.9628H53.2095L53.7389 32.5421C54.9401 31.3168 54.0281 29.3962 52.2452 29.3962H51.4577V27.3487V25.3011H53.0726C54.5386 25.3011 54.7353 25.3497 55.2024 25.8263L55.7173 26.3513L55.5928 70.9235L55.4684 115.495L55.0467 115.854C54.65 116.191 53.1511 116.212 29.8564 116.212C5.35542 116.212 5.08342 116.208 4.68636 115.803C4.2873 115.395 4.28489 115.12 4.28489 70.7883C4.28489 28.5631 4.30356 26.1671 4.63618 25.8714C5.16391 25.4025 5.45759 25.3349 7.045 25.3173L8.50034 25.3011V27.3227ZM99.1697 35.165C99.5996 35.5772 99.6342 35.7745 99.6342 37.8268V40.0435H79.4603H59.2864V37.3816V34.7198H78.9958H98.705L99.1697 35.165ZM11.1533 36.947C9.91693 37.3857 9.26975 37.948 8.53145 39.2244L7.9985 40.1458V50.7931V61.4403L8.54651 62.3914C9.24908 63.6101 10.0484 64.2886 11.2685 64.702C12.1403 64.9975 14.1352 65.0261 30.2944 64.9766L48.3463 64.9211L49.1683 64.4725C49.6204 64.2258 50.2866 63.6797 50.6487 63.2589C52.0039 61.6843 51.9595 62.1065 51.9595 50.7931C51.9595 39.4796 52.0039 39.9018 50.6487 38.3272C50.2866 37.9064 49.6204 37.3604 49.1683 37.1136L48.3463 36.665L30.2801 36.6177C13.1923 36.5731 12.1565 36.5909 11.1533 36.947ZM47.9306 40.7746C48.2084 41.0582 48.2459 42.2509 48.2459 50.7931C48.2459 59.3352 48.2084 60.5279 47.9306 60.8115C47.6485 61.0989 45.7347 61.1331 29.8756 61.1331H12.1363L11.8239 60.678C11.5519 60.2822 11.5114 58.9965 11.5114 50.7931C11.5114 42.5896 11.5519 41.3039 11.8239 40.9081L12.1363 40.453H29.8756C45.7347 40.453 47.6485 40.4872 47.9306 40.7746ZM99.6342 46.9027V49.8717H79.4603H59.2864V46.9027V43.9338H79.4603H99.6342V46.9027ZM99.6342 58.5064C99.6342 62.8244 99.5918 63.5034 99.302 63.83C98.9844 64.1879 98.0953 64.2045 79.1281 64.2045H59.2864V58.8809V53.5572H79.4603H99.6342V58.5064ZM11.3857 69.4644C11.151 69.5115 10.7446 69.7826 10.4824 70.0668C10.0193 70.5692 10.004 70.6976 9.94122 74.6117C9.90027 77.1628 9.95828 78.9208 10.0994 79.4062C10.4689 80.6774 10.9017 80.7896 15.4311 80.7896H19.371L19.9577 80.1911L20.5445 79.5926V75.1611C20.5445 72.3783 20.4638 70.5758 20.3277 70.3164C19.8973 69.4961 18.9837 69.3215 15.2816 69.3512C13.3736 69.3665 11.6204 69.4175 11.3857 69.4644ZM26.0394 69.4644C25.8047 69.5115 25.3982 69.7826 25.1361 70.0668C24.673 70.5692 24.6577 70.6976 24.5949 74.6117C24.5539 77.1628 24.612 78.9208 24.7531 79.4062C25.1226 80.6774 25.5554 80.7896 30.0848 80.7896H34.0246L34.6114 80.1911L35.1981 79.5926V75.1611C35.1981 72.3783 35.1174 70.5758 34.9813 70.3164C34.551 69.4961 33.6374 69.3215 29.9353 69.3512C28.0273 69.3665 26.274 69.4175 26.0394 69.4644ZM39.8678 69.5438C38.6875 69.9059 38.5807 70.4163 38.6498 75.3697C38.7309 81.1794 38.2421 80.6872 43.9301 80.6872C49.6135 80.6872 49.1292 81.1696 49.2109 75.4291C49.2508 72.6379 49.1952 70.9124 49.0545 70.5658C48.6307 69.5223 48.2497 69.429 44.2312 69.3852C42.1887 69.3628 40.2252 69.4343 39.8678 69.5438ZM16.8887 75.1076L16.8309 77.0016L15.2752 77.0614L13.7195 77.1212V75.1674V73.2137H15.333H16.9463L16.8887 75.1076ZM31.5423 75.1076L31.4845 77.0016L29.9288 77.0614L28.3731 77.1212V75.1674V73.2137H29.9866H31.6L31.5423 75.1076ZM45.4356 75.1588V77.104H43.9301H42.4246V75.1588V73.2137H43.9301H45.4356V75.1588ZM10.5691 85.3783L10.0058 85.8722L9.94382 90.1188C9.90067 93.0806 9.95467 94.5443 10.1221 94.9567C10.5826 96.0904 10.8245 96.1461 15.285 96.1461H19.371L19.9577 95.5476L20.5445 94.9491V90.62C20.5445 86.2401 20.4672 85.7018 19.759 85.1471C19.5328 84.97 18.235 84.8957 15.2864 84.8912C11.1812 84.8846 11.1256 84.8904 10.5691 85.3783ZM25.2228 85.3783L24.6595 85.8722L24.5975 90.1188C24.5543 93.0806 24.6083 94.5443 24.7758 94.9567C25.2362 96.0904 25.4781 96.1461 29.9387 96.1461H34.0246L34.6114 95.5476L35.1981 94.9491V90.62C35.1981 86.2401 35.1209 85.7018 34.4127 85.1471C34.1864 84.97 32.8887 84.8957 29.9401 84.8912C25.8348 84.8846 25.7792 84.8904 25.2228 85.3783ZM39.1974 85.4831L38.6106 86.0816V90.5154V94.9491L39.1974 95.5476L39.7841 96.1461H43.9034C47.9677 96.1461 48.0303 96.1396 48.586 95.6523L49.1492 95.1586L49.2103 90.6313L49.2715 86.104L48.6737 85.4942L48.0761 84.8846H43.9301H39.7841L39.1974 85.4831ZM16.9312 90.5154V92.4606H15.3253H13.7195V90.5154V88.5702H15.3253H16.9312V90.5154ZM31.5849 90.5154V92.4606H29.979H28.3731V90.5154V88.5702H29.979H31.5849V90.5154ZM45.4356 90.5154V92.4606H43.9301H42.4246V90.5154V88.5702H43.9301H45.4356V90.5154ZM10.6123 100.73C9.94483 101.411 9.87116 102.049 9.94282 106.533L10.0058 110.471L10.5621 111.038L11.1183 111.605L14.4594 111.674C18.4544 111.757 19.4268 111.638 20.0679 110.984C20.5408 110.501 20.5445 110.463 20.5445 105.968V101.438L19.9577 100.84L19.371 100.241H15.2312C11.135 100.241 11.0866 100.246 10.6123 100.73ZM25.266 100.73C24.5985 101.411 24.5248 102.049 24.5965 106.533L24.6595 110.471L25.2158 111.038L25.7718 111.605L29.309 111.674C33.3616 111.752 34.0543 111.664 34.7188 110.987C35.1951 110.5 35.1981 110.47 35.1981 105.968V101.438L34.6114 100.84L34.0246 100.241H29.8849C25.7887 100.241 25.7403 100.246 25.266 100.73ZM39.2743 100.735L38.711 101.229L38.65 105.736L38.5892 110.243L39.1855 110.924L39.7821 111.605H43.9301H48.0781L48.6747 110.924L49.2711 110.243L49.2103 105.736L49.1492 101.229L48.586 100.735C48.0305 100.248 47.9661 100.241 43.9301 100.241C39.8941 100.241 39.8297 100.248 39.2743 100.735ZM16.9312 105.872V107.817H15.3253H13.7195V105.872V103.927H15.3253H16.9312V105.872ZM31.5849 105.872V107.817H29.979H28.3731V105.872V103.927H29.979H31.5849V105.872ZM45.4356 105.872V107.817H43.9301H42.4246V105.872V103.927H43.9301H45.4356V105.872Z" fill="url(#paint0_linear_101_1677)"/>
<defs>
<linearGradient id="paint0_linear_101_1677" x1="0.571289" y1="0" x2="130.649" y2="52.3059" gradientUnits="userSpaceOnUse">
<stop stop-color="#208275"/>
<stop offset="1" stop-color="#2DD4BF"/>
</linearGradient>
</defs>
</svg>
