<svg width="32" height="32" viewBox="0 0 32 32" fill="currentColor" xmlns="http://www.w3.org/2000/svg">
<path d="M18.5292 16L31.3466 0.72168C31.5614 0.467774 31.3808 0.0820312 31.0487 0.0820312H27.1522C26.9228 0.0820312 26.703 0.18457 26.5517 0.360351L15.9804 12.9629L5.40908 0.360351C5.2626 0.18457 5.04287 0.0820312 4.8085 0.0820312H0.912013C0.579981 0.0820312 0.399317 0.467774 0.614161 0.72168L13.4315 16L0.614161 31.2783C0.566034 31.3349 0.535158 31.4041 0.525199 31.4778C0.51524 31.5514 0.526615 31.6263 0.557976 31.6937C0.589336 31.761 0.639365 31.8179 0.70212 31.8577C0.764875 31.8975 0.837722 31.9184 0.912013 31.918H4.8085C5.03799 31.918 5.25772 31.8154 5.40908 31.6396L15.9804 19.0371L26.5517 31.6396C26.6981 31.8154 26.9179 31.918 27.1522 31.918H31.0487C31.3808 31.918 31.5614 31.5322 31.3466 31.2783L18.5292 16Z"/>
</svg>
