<svg width="32" height="32" viewBox="0 0 32 32" fill="none" xmlns="http://www.w3.org/2000/svg">
<path d="M21 4C19.207 4 17.582 4.336 16.312 4.969C15.043 5.602 14 6.633 14 8V12C14 12.129 14.043 12.254 14.063 12.375C13.062 12.1206 12.0328 11.9946 11 12C9.207 12 7.582 12.336 6.312 12.969C5.043 13.602 4 14.633 4 16V24C4 25.367 5.043 26.398 6.313 27.031C7.582 27.664 9.207 28 11 28C12.793 28 14.418 27.664 15.688 27.031C16.956 26.398 18 25.367 18 24V23.594C18.9782 23.8585 19.9867 23.9949 21 24C22.793 24 24.418 23.664 25.688 23.031C26.956 22.398 28 21.367 28 20V8C28 6.633 26.957 5.602 25.687 4.969C24.419 4.336 22.794 4 21 4ZM21 6C22.523 6 23.879 6.328 24.781 6.781C25.684 7.234 26 7.711 26 8C26 8.29 25.684 8.766 24.781 9.219C23.88 9.672 22.523 10 21 10C19.477 10 18.121 9.672 17.219 9.219C16.316 8.766 16 8.289 16 8C16 7.71 16.316 7.234 17.219 6.781C18.12 6.328 19.477 6 21 6ZM16 10.844C16.105 10.902 16.203 10.977 16.313 11.031C17.582 11.664 19.207 12 21 12C22.793 12 24.418 11.664 25.688 11.031C25.797 10.977 25.895 10.902 26 10.844V12C26 12.29 25.684 12.766 24.781 13.219C23.879 13.672 22.523 14 21 14C19.477 14 18.121 13.672 17.219 13.219C16.316 12.766 16 12.289 16 12V10.844ZM11 14C12.523 14 13.879 14.328 14.781 14.781C15.684 15.234 16 15.711 16 16C16 16.29 15.684 16.766 14.781 17.219C13.879 17.672 12.523 18 11 18C9.477 18 8.121 17.672 7.219 17.219C6.316 16.766 6 16.289 6 16C6 15.71 6.316 15.234 7.219 14.781C8.12 14.328 9.477 14 11 14ZM26 14.844V16C26 16.29 25.684 16.766 24.781 17.219C23.879 17.672 22.523 18 21 18C19.9813 18.0055 18.9684 17.8472 18 17.531V16C18 15.871 17.957 15.746 17.937 15.625C18.867 15.867 19.898 16 21 16C22.793 16 24.418 15.664 25.688 15.031C25.797 14.977 25.895 14.902 26 14.844ZM6 18.844C6.105 18.902 6.203 18.977 6.313 19.031C7.582 19.664 9.207 20 11 20C12.793 20 14.418 19.664 15.688 19.031C15.797 18.977 15.895 18.902 16 18.844V20C16 20.29 15.684 20.766 14.781 21.219C13.879 21.672 12.523 22 11 22C9.477 22 8.121 21.672 7.219 21.219C6.316 20.766 6 20.289 6 20V18.844ZM26 18.844V20C26 20.29 25.684 20.766 24.781 21.219C23.879 21.672 22.523 22 21 22C19.863 22 18.836 21.84 18 21.562V19.625C18.918 19.867 19.918 20 21 20C22.793 20 24.418 19.664 25.688 19.031C25.797 18.977 25.895 18.902 26 18.844ZM6 22.844C6.105 22.902 6.203 22.977 6.313 23.031C7.582 23.664 9.207 24 11 24C12.793 24 14.418 23.664 15.688 23.031C15.797 22.977 15.895 22.902 16 22.844V24C16 24.29 15.684 24.766 14.781 25.219C13.879 25.672 12.523 26 11 26C9.477 26 8.121 25.672 7.219 25.219C6.316 24.766 6 24.289 6 24V22.844Z" fill="currentColor"/>
</svg>
