<?xml version="1.0" standalone="no"?>
<!DOCTYPE svg PUBLIC "-//W3C//DTD SVG 20010904//EN"
 "http://www.w3.org/TR/2001/REC-SVG-20010904/DTD/svg10.dtd">
<svg version="1.0" xmlns="http://www.w3.org/2000/svg"
 width="512.000000pt" height="512.000000pt" viewBox="0 0 512.000000 512.000000"
 preserveAspectRatio="xMidYMid meet">

<g transform="translate(0.000000,512.000000) scale(0.100000,-0.100000)"
fill="currentColor" stroke="none">
<path d="M1125 4504 c-11 -3 -56 -12 -100 -20 -377 -72 -708 -331 -881 -689
-169 -350 -167 -754 4 -1104 51 -102 122 -209 188 -280 l53 -58 3 -804 c3
-893 -1 -843 71 -906 20 -18 53 -37 74 -42 21 -6 129 -11 240 -11 l203 0 6 27
c56 257 229 458 462 538 111 39 275 46 390 17 241 -61 422 -232 501 -471 12
-36 21 -75 21 -88 l0 -23 208 0 c114 0 224 5 244 10 50 14 97 55 119 105 18
38 19 98 19 1263 0 1078 -2 1227 -15 1259 -39 92 -90 116 -262 121 -73 2 -133
6 -133 9 0 2 -5 37 -11 76 -79 521 -469 936 -989 1052 -73 16 -370 30 -415 19z
m288 -275 c318 -47 587 -234 737 -512 166 -308 159 -654 -21 -975 -61 -107
-225 -273 -334 -336 -230 -133 -465 -175 -708 -125 -204 41 -355 124 -507 278
-149 151 -229 299 -270 501 -88 432 132 875 535 1078 166 83 385 118 568 91z"/>
<path d="M1235 4005 c-19 -18 -25 -35 -26 -72 0 -26 -6 -155 -12 -285 -12
-236 -13 -237 -39 -261 -118 -109 -56 -297 106 -321 35 -6 66 -28 201 -147 88
-77 170 -145 181 -151 44 -21 124 44 124 99 0 11 -67 98 -150 194 -82 96 -152
184 -155 197 -3 12 -7 34 -10 48 -3 14 -23 44 -45 67 l-38 42 -11 240 c-6 132
-11 259 -11 283 0 32 -6 49 -25 67 -31 32 -59 32 -90 0z"/>
<path d="M3265 2931 c-50 -23 -91 -70 -105 -121 -7 -26 -9 -372 -8 -1057 l3
-1018 27 -45 c27 -47 78 -83 133 -94 31 -7 31 -7 44 56 40 194 187 379 374
469 113 55 204 72 340 67 125 -5 215 -31 315 -90 73 -43 208 -177 250 -250 31
-52 71 -160 87 -232 l6 -28 122 3 c112 4 126 6 169 31 35 21 53 41 73 82 l26
53 -3 549 -3 549 -28 79 c-44 126 -86 190 -341 531 -267 357 -328 427 -401
461 l-50 24 -495 0 c-459 0 -498 -2 -535 -19z m1004 -393 c37 -27 458 -608
496 -685 44 -91 92 -83 -500 -83 l-525 0 0 395 0 395 249 0 c241 0 249 -1 280
-22z"/>
<path d="M1605 939 c-240 -35 -417 -275 -377 -513 51 -309 377 -476 655 -335
168 86 265 277 238 467 -36 245 -268 416 -516 381z"/>
<path d="M3995 943 c-108 -12 -200 -56 -277 -134 -248 -247 -132 -665 209
-754 154 -40 313 4 428 120 177 176 178 459 3 635 -95 94 -237 147 -363 133z"/>
</g>
</svg>
