<svg width="80" height="54" viewBox="0 0 80 54" fill="none" xmlns="http://www.w3.org/2000/svg">
<g clip-path="url(#clip0_73_2155)">
<path d="M66.667 13.4666L40.0003 30.1333L13.3337 13.4666V6.79997L40.0003 23.4666L66.667 6.79997M66.667 0.133301H13.3337C9.63366 0.133301 6.66699 3.09997 6.66699 6.79997V46.8C6.66699 48.5681 7.36937 50.2638 8.61961 51.514C9.86986 52.7643 11.5655 53.4666 13.3337 53.4666H66.667C68.4351 53.4666 70.1308 52.7643 71.381 51.514C72.6313 50.2638 73.3337 48.5681 73.3337 46.8V6.79997C73.3337 5.03186 72.6313 3.33616 71.381 2.08592C70.1308 0.835679 68.4351 0.133301 66.667 0.133301Z" fill="white"/>
</g>
<defs>
<clipPath id="clip0_73_2155">
<rect width="80" height="53.6" fill="white"/>
</clipPath>
</defs>
</svg>
