<svg width="120" height="120" viewBox="0 0 120 120" fill="none" xmlns="http://www.w3.org/2000/svg">
<path fill-rule="evenodd" clip-rule="evenodd" d="M93.4723 0.115467C84.2776 1.46972 76.9411 8.60991 75.2398 17.8595L74.8843 19.7929L50.1314 19.8562L25.3782 19.9193L23.7089 20.7907C21.8153 21.7793 20.1144 23.4326 19.249 25.126C18.9191 25.7718 15.2223 38.7616 10.5336 55.7512C6.05532 71.9784 2.0947 85.9906 1.73257 86.8897C0.207033 90.6766 -0.337943 95.5051 0.204815 100.429C1.26814 110.077 7.66651 117.531 16.6367 119.571C18.4262 119.978 20.6359 120 59.7954 120C92.5208 120 101.39 119.937 102.621 119.698C110.347 118.196 116.394 112.781 118.835 105.178C120.518 99.9389 120.363 92.6508 118.46 87.5382C117.952 86.1727 106.113 43.8128 105.8 42.2394C105.753 42.0024 106.347 41.4488 107.503 40.6514C111.72 37.7435 114.99 32.8594 116.313 27.4928C116.946 24.9247 116.984 20.3257 116.396 17.5755C114.528 8.85437 108.257 2.28162 100.073 0.467039C98.0924 0.0280429 95.1352 -0.129461 93.4723 0.115467ZM99.5348 6.44071C102.459 7.21886 104.338 8.36639 106.629 10.7747C109.477 13.7682 110.647 16.296 111.158 20.5638C111.725 25.3039 110.069 30.1362 106.633 33.767C104.876 35.6237 103.036 36.8031 100.402 37.7606C98.8378 38.3297 98.2983 38.4065 95.8535 38.4091C93.3188 38.4119 92.9123 38.3498 91.1358 37.6891C86.8563 36.0974 84.0511 33.4946 82.0012 29.2134C80.6126 26.3136 80.1428 21.7559 80.8864 18.3958C82.1215 12.8126 86.6976 7.94989 92.1323 6.44587C94.3215 5.84 97.2699 5.83789 99.5348 6.44071ZM95.4097 11.0606C94.5521 11.3782 94.5221 11.6838 94.5221 20.0812C94.5221 24.5685 94.446 28.2398 94.353 28.2398C94.2601 28.2398 92.6387 26.605 90.7499 24.6069C87.1312 20.7785 86.6131 20.4438 85.7916 21.4027C84.9611 22.3718 85.2191 22.7656 89.9178 27.7014C96.1994 34.3 95.6911 34.3002 102.011 27.6927C105.76 23.773 106.283 23.1364 106.283 22.4883C106.283 22.0704 106.106 21.5813 105.877 21.3619C104.992 20.516 104.546 20.8106 100.957 24.6069C99.0683 26.605 97.4469 28.2398 97.354 28.2398C97.261 28.2398 97.1849 24.5084 97.1849 19.9479C97.1849 13.5957 97.1201 11.6013 96.9075 11.4218C96.513 11.0883 95.7994 10.9162 95.4097 11.0606ZM75.2172 26.2354C75.2172 27.085 76.2812 30.4959 77.0487 32.1071C80.1399 38.5955 86.1622 43.1924 92.8967 44.204C94.5175 44.4475 98.5433 44.3549 99.8476 44.0443L100.402 43.9122L104.816 59.9244C107.243 68.731 109.28 76.0789 109.341 76.253C109.429 76.5003 109.307 76.4893 108.783 76.2031C107.59 75.5515 105.284 74.7058 103.487 74.261C101.813 73.8466 99.8376 73.8269 59.7954 73.8269H17.8571L15.7466 74.4438C14.5857 74.783 12.9576 75.3856 12.1284 75.7826C10.8871 76.3772 10.6421 76.4337 10.7413 76.1032C10.8077 75.8827 13.7578 65.2076 17.297 52.3811C20.8363 39.5545 23.9026 28.6542 24.111 28.158C24.5235 27.1764 25.5653 26.2129 26.5521 25.9C26.8956 25.791 37.9857 25.6928 51.1969 25.6818L75.2172 25.6616V26.2354ZM103.041 80.2658C106.07 81.0843 108.774 82.8928 110.873 85.5038C111.897 86.7784 112.383 87.7257 113.419 90.468C114.091 92.2486 114.132 92.5348 114.222 96.1494C114.331 100.552 114.046 102.405 112.854 105.024C111.028 109.034 107.729 112.013 103.62 113.36L101.956 113.906H59.9064H17.8571L16.3038 113.346C12.0514 111.813 9.22155 109.278 7.32545 105.301C5.99918 102.52 5.7014 100.694 5.81323 96.0341C5.89955 92.4433 5.95569 91.9987 6.47049 90.8196C6.78026 90.1105 7.2043 89.0324 7.41332 88.4235C8.57118 85.0479 12.8096 81.4106 16.9065 80.2769C18.4682 79.8444 19.9183 79.829 59.9263 79.8165C100.429 79.8039 101.367 79.8137 103.041 80.2658ZM25.7417 88.851C20.7806 90.2592 18.448 96.0966 20.9024 100.961C21.717 102.575 22.9234 103.761 24.6249 104.619C25.6665 105.144 26.138 105.233 27.8424 105.229C29.5261 105.224 30.031 105.127 31.0599 104.613C32.7845 103.751 33.9683 102.574 34.8363 100.857C35.4812 99.5819 35.5983 99.0958 35.6742 97.3822C35.7459 95.7622 35.674 95.1425 35.2894 94.065C34.3309 91.3802 32.4226 89.5478 29.8461 88.839C28.2414 88.3975 27.3298 88.4003 25.7417 88.851ZM72.6039 90.247C71.6753 90.9337 72.0962 92.509 73.2911 92.8198C73.5572 92.8889 79.2384 92.9154 85.9159 92.8786C96.8815 92.8184 98.0924 92.7741 98.4253 92.4225C98.9075 91.9132 98.8948 90.922 98.3986 90.3431C98.0148 89.8951 97.652 89.882 85.5504 89.882C74.6383 89.882 73.0359 89.9273 72.6039 90.247ZM30.135 92.1328C34.1167 94.2289 33.7954 100.391 29.6167 102.07C27.3263 102.991 24.4101 101.8 23.3033 99.4917C21.0346 94.7621 25.6616 89.7782 30.135 92.1328ZM59.7561 101.058C58.7374 101.273 58.3941 102.618 59.1364 103.484C59.5234 103.936 59.9212 103.945 78.7675 103.945C97.6138 103.945 98.0117 103.936 98.3986 103.484C98.8948 102.905 98.9075 101.914 98.4253 101.404C98.088 101.048 96.4506 101.013 79.1481 100.986C68.7483 100.97 60.0217 101.002 59.7561 101.058Z" fill="url(#paint0_linear_106_1690)"/>
<defs>
<linearGradient id="paint0_linear_106_1690" x1="0" y1="0" x2="144.495" y2="67.787" gradientUnits="userSpaceOnUse">
<stop stop-color="#208275"/>
<stop offset="1" stop-color="#2DD4BF"/>
</linearGradient>
</defs>
</svg>
