<svg width="121" height="120" viewBox="0 0 121 120" fill="none" xmlns="http://www.w3.org/2000/svg">
<path fill-rule="evenodd" clip-rule="evenodd" d="M57.1445 0.207413C51.2981 1.14734 45.9837 4.41533 42.5771 9.1655L41.6294 10.4868L25.4235 10.491C15.8008 10.4936 8.60379 10.5811 7.70618 10.7065C4.76787 11.1175 2.51512 12.7254 1.26858 15.3017L0.580638 16.7234L0.516723 57.8427C0.469867 87.9552 0.518667 99.2997 0.698749 100.224C1.02696 101.907 1.72612 103.19 2.98259 104.413C4.30492 105.7 5.88528 106.455 7.74807 106.691C8.55628 106.793 25.663 106.879 45.7631 106.883L82.3085 106.89V112.408C82.3085 117.076 82.3627 118.037 82.6615 118.653C83.0988 119.556 83.9346 119.997 85.2038 119.997C86.2763 119.997 85.9831 120.205 91.7827 115.346C93.2399 114.125 94.5152 113.127 94.6162 113.127C94.7173 113.127 95.9926 114.125 97.4498 115.346C103.324 120.267 102.937 119.997 104.129 119.997C105.051 119.997 105.317 119.895 106.01 119.274L106.816 118.551L106.88 112.72L106.943 106.89L109.363 106.883C114.147 106.869 116.05 106.327 118.041 104.409C118.637 103.834 119.373 102.811 119.753 102.027L120.419 100.653L120.483 59.534C120.53 29.4216 120.481 18.0771 120.301 17.1532C119.619 13.6548 116.883 11.1443 113.252 10.6862C112.444 10.5841 104.484 10.4976 95.5646 10.4938L79.3466 10.4868L78.5479 9.30905C75.7519 5.18612 70.8469 1.8283 65.72 0.52749C63.5776 -0.0160457 59.4845 -0.168897 57.1445 0.207413ZM62.8752 5.42735C70.5775 6.6493 76.2289 12.6798 76.8324 20.321C77.0818 23.479 76.1872 26.8236 74.232 30.0418C70.8547 35.6011 69.1735 40.4963 68.7855 45.9004L68.6415 47.9064H60.5006H52.36L52.2259 45.9101C51.8774 40.7134 49.9155 35.0079 46.7164 29.8869C45.7195 28.2912 44.8786 26.2648 44.4999 24.5456C44.1104 22.7769 44.1743 19.1485 44.6245 17.4634C46.1908 11.602 51.0278 6.96367 56.8293 5.75947C59.6648 5.1707 60.8479 5.10579 62.8752 5.42735ZM39.2646 16.4592C38.5166 19.3885 38.5756 23.3296 39.4159 26.554C40.0553 29.0072 40.5632 30.1364 42.5417 33.5064C45.3779 38.3376 46.8906 43.3349 46.8988 47.901C46.9025 49.9778 48.3078 52.0983 50.1895 52.8668L50.9993 53.1974L51.0019 55.8899C51.0034 57.4926 51.1243 59.0235 51.3005 59.6714C52.0018 62.2506 53.9007 64.5292 56.3205 65.6958L57.693 66.3573V79.2419V92.1267L56.8832 91.5024C55.3888 90.35 53.9229 89.5847 51.8604 88.8801L49.8117 88.1801L27.8382 88.1216L5.86455 88.0628L5.92177 52.9217C5.96798 24.3657 6.0319 17.6891 6.2625 17.2934C6.4184 17.0257 6.85565 16.6217 7.23417 16.3957C7.89879 15.9991 8.45739 15.985 23.654 15.9843L39.3861 15.9835L39.2646 16.4592ZM113.793 16.4118C114.186 16.6465 114.634 17.1454 114.789 17.5209C115.018 18.0758 115.05 24.7314 114.963 53.1331L114.855 88.0628L93.0216 88.1216L71.1883 88.1801L69.6768 88.6801C67.6821 89.3399 65.8338 90.256 64.4406 91.2754L63.307 92.1049V79.2311V66.3573L64.6987 65.6865C67.0635 64.5466 68.8295 62.5352 69.6071 60.0966C69.9055 59.1609 70.0007 58.178 70.0007 56.0369V53.2116L70.9184 52.8116C72.0047 52.338 73.0751 51.3142 73.5911 50.2548C73.8254 49.7736 74.0295 48.5944 74.1437 47.0608C74.4948 42.3442 75.7621 38.1025 77.9021 34.4819C80.7255 29.7051 81.4223 28.0709 81.9915 24.8879C82.4642 22.2457 82.351 18.3113 81.746 16.3535C81.6378 16.0034 82.4806 15.9835 97.3548 15.9843C112.744 15.985 113.093 15.9941 113.793 16.4118ZM16.0193 29.455C13.9689 30.2093 13.5213 32.6803 15.1865 34.0521L15.8364 34.5876H23.7229H31.6092L32.3262 33.8855C33.2651 32.9663 33.4752 31.9213 32.9377 30.8442C32.1833 29.3319 31.9944 29.3009 23.6847 29.3195C19.6469 29.3283 16.1975 29.3894 16.0193 29.455ZM89.2628 29.655C87.5969 30.459 87.3503 32.8437 88.8091 34.0455L89.4671 34.5876H97.3535H105.24L105.961 33.8813C106.358 33.4927 106.752 32.9043 106.837 32.5735C107.071 31.6617 106.514 30.3526 105.65 29.785C104.921 29.3053 104.871 29.3023 97.4453 29.3072C90.9954 29.3112 89.8767 29.3588 89.2628 29.655ZM15.893 42.9216C15.0835 43.2668 14.3705 44.1148 14.1816 44.9575C14.0054 45.7429 14.5962 46.9705 15.4413 47.5756C16.0372 48.0022 16.2845 48.0122 26.3455 48.0122C36.1812 48.0122 36.6713 47.9938 37.3385 47.5986C39.1905 46.5018 39.0659 43.8789 37.1189 42.9743C36.4426 42.6601 35.2708 42.622 26.4591 42.6294C18.6625 42.636 16.4177 42.6981 15.893 42.9216ZM83.8275 43.0106C82.1813 43.8749 81.9082 45.8655 83.2547 47.1838C83.8051 47.7227 84.1974 47.895 85.127 48.006C85.7739 48.0832 90.4985 48.1162 95.6263 48.0792C104.676 48.0141 104.967 47.9993 105.559 47.5722C106.517 46.8807 107.017 45.8164 106.834 44.8609C106.673 44.0209 105.891 43.1366 105.021 42.8091C104.746 42.7058 100.032 42.6212 94.5448 42.6212C85.2673 42.6212 84.517 42.6485 83.8275 43.0106ZM64.6026 55.7354C64.6026 57.3622 64.5015 58.3047 64.2683 58.8507C63.5905 60.4395 62.3403 61.276 60.608 61.3006C59.1915 61.3207 57.9925 60.7131 57.1531 59.5501C56.5313 58.6882 56.5023 58.5476 56.4291 56.0278L56.3529 53.4031H60.4778H64.6026V55.7354ZM15.893 56.2405C15.0835 56.5857 14.3705 57.4337 14.1816 58.2763C14.0054 59.0617 14.5962 60.2894 15.4415 60.8944C16.0416 61.3242 16.2553 61.331 29.1623 61.331C43.7278 61.331 43.0031 61.401 43.7854 59.9198C44.2246 59.0884 44.0905 57.5848 43.5213 56.9593C42.5974 55.9436 42.538 55.9394 29.1437 55.9483C19.0999 55.9548 16.4246 56.0138 15.893 56.2405ZM78.4801 56.2508C77.0704 56.8561 76.4934 58.7562 77.3176 60.0795C78.178 61.4612 77.9185 61.4367 91.6529 61.4367C98.4785 61.4367 104.372 61.376 104.751 61.302C105.129 61.228 105.72 60.8913 106.065 60.5539C107.241 59.4029 107.11 57.5303 105.786 56.558L105.089 56.0457L92.1331 55.9986C81.3513 55.9593 79.0605 56.0018 78.4801 56.2508ZM16.2804 69.4635C13.7962 70.0517 13.4001 73.3579 15.6868 74.4203C16.3249 74.7167 18.2021 74.7556 31.8899 74.7556C48.9363 74.7556 48.3369 74.8008 49.1488 73.4552C49.93 72.1605 49.5461 70.5673 48.2529 69.7375C47.7129 69.391 46.5888 69.3621 32.3314 69.3299C23.8941 69.3109 16.6712 69.3712 16.2804 69.4635ZM73.6872 69.4096C71.8227 69.765 70.8305 72.1586 71.9631 73.5685C72.9546 74.8025 72.2701 74.7556 89.2613 74.7547C104.155 74.7541 104.903 74.7357 105.538 74.3568C106.254 73.929 106.924 72.7772 106.923 71.9753C106.922 71.3087 106.217 70.2149 105.487 69.746C104.929 69.3881 103.947 69.3629 89.5517 69.3371C81.1144 69.3221 73.9755 69.3547 73.6872 69.4096ZM48.6241 93.5772C50.3282 93.8372 52.7357 94.9505 54.0568 96.0888C55.2709 97.1353 56.4842 98.8394 57.0465 100.288L57.4753 101.393H32.7419C5.74861 101.393 7.26094 101.462 6.39703 100.188C6.07011 99.7066 5.97921 99.0756 5.90817 96.7995C5.86024 95.2615 5.87773 93.8582 5.94704 93.6812C6.05867 93.3965 8.42867 93.3599 26.647 93.3614C39.471 93.3622 47.7492 93.4436 48.6241 93.5772ZM82.3085 97.3765V101.393H72.9166H63.5247L63.9535 100.288C65.2316 96.9951 68.3934 94.3645 71.8929 93.6829C72.8006 93.506 75.032 93.392 77.828 93.3795L82.3085 93.3597V97.3765ZM101.474 102.503C101.505 107.474 101.473 111.541 101.403 111.541C101.333 111.541 100.287 110.705 99.0792 109.683C95.792 106.901 95.7743 106.89 94.6162 106.89C93.4582 106.89 93.4405 106.901 90.1533 109.683C88.9456 110.705 87.901 111.541 87.8321 111.541C87.6542 111.541 87.6755 93.6721 87.8537 93.4977C87.9344 93.4184 91.0196 93.3789 94.7093 93.4096L101.418 93.4654L101.474 102.503ZM115.129 96.2205C115.129 101.014 114.755 101.391 110.001 101.392L106.924 101.393V97.3765V93.3597H111.027H115.129V96.2205Z" fill="url(#paint0_linear_101_1683)"/>
<defs>
<linearGradient id="paint0_linear_101_1683" x1="0.5" y1="0" x2="144.995" y2="67.787" gradientUnits="userSpaceOnUse">
<stop stop-color="#208275"/>
<stop offset="1" stop-color="#2DD4BF"/>
</linearGradient>
</defs>
</svg>
