<svg width="121" height="120" viewBox="0 0 121 120" fill="none" xmlns="http://www.w3.org/2000/svg">
<path fill-rule="evenodd" clip-rule="evenodd" d="M47.6946 0.116825C33.6316 1.07859 21.2809 10.4362 16.7879 23.5337C14.9518 28.8857 14.729 31.2143 14.8282 44.0098C14.9012 53.4094 14.9256 53.9624 15.3194 55.1258C15.5474 55.7993 16.0197 56.7903 16.3691 57.328C17.6697 59.3299 20.3951 61.2524 22.3891 61.5744C23.2457 61.7127 23.1852 61.6105 24.1073 64.4832C24.8646 66.8422 26.4461 69.9113 28.0092 72.0558C29.4792 74.0727 32.7242 77.1608 34.7946 78.5133L36.4079 79.5673V80.5503V81.5334L30.7043 82.3897C24.0879 83.3834 22.4385 83.802 19.4203 85.2533C14.6072 87.5677 10.696 91.4203 8.25094 96.255C7.74962 97.2466 6.22839 101.725 3.98584 108.814C2.06864 114.873 0.5 119.878 0.5 119.935C0.5 119.992 25.7422 120.016 56.5936 119.989L112.687 119.94L112.744 118.034L112.801 116.129L109.867 116.075L106.934 116.02L106.878 114.125L106.821 112.23L111.54 112.165C116.209 112.1 116.269 112.094 117.263 111.577C118.455 110.956 119.629 109.731 120.153 108.561C120.518 107.746 120.529 107.044 120.478 88.7453C120.427 70.6928 120.406 69.741 120.056 69.0882C119.418 67.9009 117.944 66.5688 116.801 66.1465C115.775 65.7671 115.221 65.757 95.7411 65.757H75.7351L76.2239 64.1403C76.972 61.6661 76.9526 61.6971 77.8697 61.544C79.378 61.2922 81.3087 60.1662 82.6371 58.7636C84.0744 57.2459 84.892 55.6708 85.2104 53.8054C85.3713 52.8638 85.4139 48.8077 85.3562 39.9603C85.2784 28.0129 85.2554 27.3641 84.8481 25.6152C83.4303 19.5248 79.9687 14.5754 74.7767 11.2153C73.3693 10.3045 72.5076 9.57477 71.7503 8.65298C70.4015 7.01085 68.2438 5.03598 66.6863 4.01817C65.1875 3.03877 62.2998 1.63688 60.7101 1.1168C57.8621 0.18541 52.6015 -0.218852 47.6946 0.116825ZM57.6352 4.32641C62.0724 5.27975 65.9616 7.73649 69.087 11.5602C70.0333 12.718 70.6792 13.3005 71.4966 13.7338C75.0407 15.6117 78.3337 19.2111 79.8808 22.8978C81.2546 26.1725 81.301 26.574 81.3905 35.9434C81.4349 40.6166 81.3976 44.4078 81.3076 44.3686C81.2175 44.3292 80.6975 44.0651 80.152 43.7815C79.6064 43.4978 78.7805 43.1537 78.3169 43.0167L77.4737 42.7677V38.7817V34.7955H75.9283C72.2465 34.7955 69.8762 33.4696 67.5753 30.1226C67.0948 29.424 66.6032 28.9185 66.4064 28.921C63.3257 28.96 57.2128 29.4121 54.6594 29.7895C44.4635 31.2966 35.6855 34.7433 26.6401 40.791C24.4063 42.2844 23.7102 42.6503 22.7789 42.8204C21.8473 42.9905 20.8445 43.3875 18.9003 44.3559C18.6765 44.4674 18.7245 33.394 18.9564 31.3662C20.539 17.5333 31.6079 6.23525 45.5336 4.23941C47.9591 3.89177 48.4356 3.87081 52.3779 3.94037C54.8895 3.98466 56.6438 4.1134 57.6352 4.32641ZM65.2875 33.6403C66.7141 35.6737 69.5835 37.5873 72.2314 38.2708L73.6052 38.6255L73.6634 39.6987L73.7213 40.7722H65.9263C58.3067 40.7722 58.1133 40.7818 57.3376 41.1968C56.3964 41.7007 55.0303 43.0653 54.5784 43.9532C54.4011 44.3016 54.2007 44.9849 54.133 45.4719L54.0102 46.357H50.0951H46.1799L46.0532 45.4262C45.8961 44.273 44.9609 42.624 44.0927 41.9701C42.5542 40.811 41.9619 40.6832 38.1041 40.6785C35.9103 40.6758 34.6154 40.6045 34.7315 40.4924C35.1054 40.1314 39.5306 38.0568 41.6651 37.2416C48.9264 34.4688 55.9272 33.0785 63.7085 32.8639C64.6844 32.8369 64.7445 32.8664 65.2875 33.6403ZM41.6609 45.0613C42.2783 45.6712 42.4114 46.4564 42.3285 49.0005C42.2606 51.0818 42.2569 51.0959 41.6123 51.6644L40.9644 52.2358H34.4055H27.8467L27.2668 51.663L26.6869 51.0902V48.4146V45.739L27.2668 45.1662L27.8467 44.5934H34.517H41.1872L41.6609 45.0613ZM73.0031 45.0586C73.5967 45.6451 73.7766 46.7736 73.6679 49.2294C73.587 51.0561 73.5663 51.1265 72.947 51.673L72.3094 52.2358H65.7505H59.1917L58.6118 51.663L58.0319 51.0902V48.3915C58.0319 45.7296 58.0393 45.6851 58.565 45.1431L59.098 44.5934H65.8152H72.5322L73.0031 45.0586ZM22.7192 52.2409V57.7326L22.1014 57.4171C18.5402 55.5981 17.7465 50.8192 20.5689 48.1892C21.1103 47.6847 22.4704 46.7527 22.6696 46.7497C22.6968 46.7493 22.7192 49.2204 22.7192 52.2409ZM78.5649 47.3074C79.4705 47.8567 80.4023 48.8824 80.8969 49.8735C81.5042 51.0904 81.5145 53.3226 80.9187 54.5873C80.4281 55.6288 79.2584 56.8269 78.2177 57.3538L77.4737 57.7307V52.3377C77.4737 46.4899 77.444 46.6275 78.5649 47.3074ZM54.1324 51.1568C54.3965 53.0598 55.7362 54.7811 57.625 55.6443C58.4783 56.0343 58.9009 56.0601 65.3214 56.1156C69.5272 56.1518 72.3943 56.0977 72.8488 55.9739C73.2525 55.8638 73.6094 55.7999 73.6419 55.832C73.6745 55.864 73.6118 56.8202 73.5026 57.957C73.285 60.2264 72.7789 62.4086 72.0048 64.4156L71.5019 65.7199L68.7842 65.7924C66.4433 65.8549 65.9505 65.9257 65.229 66.3021C63.9212 66.9844 63.0556 67.8423 62.4539 69.0526C61.9328 70.1012 61.8963 70.3447 61.8304 73.2334L61.7606 76.3005L60.0449 77.084C58.0555 77.9926 56.2726 78.5356 53.7666 78.9965C51.6493 79.3859 47.4603 79.2987 45.2329 78.8188C39.4628 77.5758 34.1879 74.0866 30.7941 69.2683C28.3617 65.8146 26.6869 60.8264 26.6869 57.0348V55.8105L27.5515 55.9927C28.027 56.0928 31.397 56.1483 35.0406 56.116C41.4703 56.0588 41.6942 56.0437 42.657 55.6061C44.3871 54.8195 45.7637 53.1642 46.0302 51.5499C46.1014 51.1188 46.1946 50.656 46.2373 50.5211C46.2956 50.3362 47.2578 50.2762 50.1625 50.2762H54.0102L54.1324 51.1568ZM40.444 66.6394C40.698 68.4692 41.95 70.1362 43.712 70.991L44.8393 71.5377H50.0965C55.0236 71.5377 55.4104 71.5119 56.2566 71.125C58.1746 70.2485 59.5385 68.5445 59.7527 66.7567L59.8727 65.757H57.9641C56.1139 65.757 56.052 65.7713 55.9358 66.2282C55.8699 66.4875 55.5934 66.9064 55.321 67.159C54.83 67.6148 54.7861 67.6186 50.0634 67.6186H45.3009L44.822 67.0687C44.5587 66.7663 44.3433 66.3476 44.3433 66.1379C44.3433 65.7856 44.1917 65.757 42.3325 65.757H40.3216L40.444 66.6394ZM115.908 70.0549C116.152 70.256 116.442 70.6555 116.553 70.9428C116.682 71.2789 116.754 76.6719 116.754 86.0514V100.638H91.258H65.7616L65.815 85.6297L65.8682 70.6218L66.4248 70.149L66.9815 69.6761L91.2231 69.6826C114.589 69.6889 115.481 69.7024 115.908 70.0549ZM42.6592 82.1134C43.5333 82.3643 45.1809 82.7235 46.3206 82.9118C49.7997 83.4863 55.096 83.0203 58.5094 81.8391C59.1538 81.6161 59.7119 81.4337 59.7494 81.4337C59.7866 81.4337 59.8166 81.8526 59.8156 82.3645C59.8108 84.7563 56.7297 87.7135 53.3316 88.5877C51.8205 88.9765 48.4179 88.9681 46.8517 88.5714C43.4746 87.7165 40.3756 84.683 40.3756 82.2326C40.3756 81.5118 40.4252 81.4107 40.7227 81.5246C40.9136 81.5977 41.7851 81.8626 42.6592 82.1134ZM41.5951 98.8614C44.0844 106.237 46.0974 112.295 46.0687 112.324C46.0129 112.379 35.6962 104.521 35.2523 104.086C35.0344 103.872 35.333 103.15 36.9998 99.86C38.1054 97.6778 38.9827 95.8676 38.949 95.8374C38.9153 95.8072 37.1324 94.9129 34.987 93.85L31.0861 91.9174L32.2771 88.9781C32.9319 87.3614 33.5041 86.0022 33.5485 85.9576C33.6574 85.8484 36.434 85.3914 36.788 85.4246C36.9774 85.4422 38.5437 89.8203 41.5951 98.8614ZM27.8652 89.3949C27.3037 90.7823 26.676 92.337 26.4703 92.85L26.0962 93.7826L29.9444 95.6801L33.7925 97.5777L31.9061 101.301C30.1958 104.676 30.051 105.046 30.3549 105.265C30.5392 105.398 33.7665 107.873 37.5271 110.764L44.3643 116.02L34.7009 116.071C29.386 116.099 25.0147 116.099 24.9868 116.071C24.9588 116.043 25.3127 113.049 25.7732 109.419C26.7369 101.819 26.9308 102.719 24.2785 102.485L22.7627 102.351L22.6417 103.111C22.575 103.529 22.2054 106.428 21.8201 109.554C21.4349 112.679 21.0762 115.435 21.023 115.677L20.9262 116.118H13.3913C9.24703 116.118 5.85642 116.066 5.85642 116.001C5.85642 115.937 7.02829 112.167 8.46083 107.624C11.2236 98.8616 11.952 97.0943 13.7803 94.7193C16.2901 91.4591 19.578 89.0825 23.4136 87.7561C24.9527 87.2238 28.7371 86.5066 28.8279 86.73C28.8599 86.8082 28.4266 88.0075 27.8652 89.3949ZM61.7939 98.2371L61.7866 106.614L58.1992 109.358C56.2262 110.867 54.4961 112.168 54.3546 112.249C54.213 112.33 55.8078 107.326 57.8986 101.128C59.9894 94.9305 61.7227 89.8599 61.7507 89.8599C61.7784 89.8599 61.7979 93.6295 61.7939 98.2371ZM46.3767 92.4023C46.887 92.4097 46.8223 92.6141 45.7534 94.3703L44.7831 95.9648L44.0671 93.8427C43.6735 92.6756 43.3514 91.6702 43.3514 91.6082C43.3514 91.5463 43.9541 91.6986 44.6905 91.9464C45.4269 92.1943 46.1859 92.3995 46.3767 92.4023ZM56.2841 93.5831C55.8876 94.7686 55.5142 95.7386 55.4545 95.7386C55.3228 95.7386 53.7236 93.1961 53.6327 92.8422C53.592 92.6838 54.1553 92.3864 55.1553 92.0376C56.0282 91.7332 56.8015 91.4714 56.8737 91.4558C56.946 91.4403 56.6805 92.3975 56.2841 93.5831ZM69.7367 94.7518V96.7184H71.7277H73.7187L73.662 94.8078L73.6052 92.8972L71.671 92.8412L69.7367 92.7851V94.7518ZM77.4737 94.7589V96.7184H87.2938H97.114V94.7589V92.7993H87.2938H77.4737V94.7589ZM52.0488 97.8405L53.8376 100.824L51.9899 106.267C50.9601 109.3 50.088 111.579 50.0199 111.415C49.6521 110.532 46.5255 101.094 46.5255 100.867C46.5255 100.719 47.2536 99.3941 48.1434 97.9232C49.8037 95.1788 50.1137 94.7099 50.2064 94.8031C50.2357 94.8327 51.0648 96.1995 52.0488 97.8405ZM116.717 105.856C116.641 107.022 116.567 107.214 115.996 107.718L115.359 108.28H91.3669C73.1882 108.28 67.2487 108.223 66.8545 108.046C66.1304 107.72 65.769 106.92 65.769 105.644V104.557H91.2846H116.8L116.717 105.856ZM63.9426 110.734C64.2378 111.006 64.8812 111.425 65.3722 111.665C66.2044 112.072 66.5774 112.105 70.8774 112.163L75.4899 112.225V114.172V116.118H65.7265C56.4286 116.118 55.9796 116.102 56.3087 115.775C56.6315 115.455 63.2197 110.288 63.3475 110.255C63.3794 110.246 63.6472 110.462 63.9426 110.734ZM103.023 114.11L102.966 116.02L91.212 116.071L79.4576 116.121V114.16V112.199H91.2687H103.08L103.023 114.11Z" fill="url(#paint0_linear_101_1657)"/>
<defs>
<linearGradient id="paint0_linear_101_1657" x1="0.5" y1="0" x2="144.995" y2="67.787" gradientUnits="userSpaceOnUse">
<stop stop-color="#208275"/>
<stop offset="1" stop-color="#2DD4BF"/>
</linearGradient>
</defs>
</svg>
