<svg width="30" height="30" viewBox="0 0 30 30" fill="currentColor" xmlns="http://www.w3.org/2000/svg">
<path d="M23.7463 25C13.0825 25.015 4.98876 16.825 5.00001 6.25375C5.00001 5.5625 5.56001 5 6.25001 5H9.55001C10.1688 5 10.695 5.455 10.7863 6.0675C11.0039 7.53632 11.4312 8.96631 12.055 10.3138L12.1838 10.5912C12.2702 10.778 12.2889 10.9891 12.2364 11.188C12.1839 11.387 12.0636 11.5615 11.8963 11.6813C10.8738 12.4113 10.4838 13.88 11.28 15.025C12.2825 16.4667 13.5337 17.7183 14.975 18.7213C16.1213 19.5163 17.59 19.1263 18.3188 18.105C18.4384 17.9372 18.613 17.8164 18.8123 17.7637C19.0116 17.711 19.223 17.7296 19.41 17.8162L19.6863 17.9437C21.0338 18.5687 22.4638 18.9963 23.9325 19.2138C24.545 19.305 25 19.8313 25 20.4513V23.75C25 23.9143 24.9676 24.0769 24.9047 24.2286C24.8418 24.3804 24.7497 24.5182 24.6335 24.6343C24.5172 24.7504 24.3793 24.8425 24.2275 24.9052C24.0757 24.968 23.913 25.0002 23.7488 25H23.7463Z"/>
</svg>
