<?xml version="1.0" standalone="no"?>
<!DOCTYPE svg PUBLIC "-//W3C//DTD SVG 20010904//EN"
 "http://www.w3.org/TR/2001/REC-SVG-20010904/DTD/svg10.dtd">
<svg version="1.0" xmlns="http://www.w3.org/2000/svg"
 width="256.000000pt" height="256.000000pt" viewBox="0 0 256.000000 256.000000"
 preserveAspectRatio="xMidYMid meet">

<g transform="translate(0.000000,256.000000) scale(0.100000,-0.100000)"
fill="currentColor" stroke="none">
<path d="M390 2550 c-162 -25 -345 -148 -380 -255 -21 -65 26 -125 97 -125 19
0 41 15 75 50 68 70 121 107 185 125 30 9 57 14 59 12 3 -3 634 -1588 714
-1794 l9 -21 -46 20 c-155 68 -333 -7 -393 -167 -82 -220 127 -447 351 -381
100 29 189 117 205 203 5 29 9 33 28 26 11 -4 35 -7 52 -6 34 1 1126 418 1161
442 73 52 31 171 -60 171 -12 0 -250 -88 -531 -195 -280 -108 -513 -194 -518
-193 -5 2 -191 462 -414 1023 -266 672 -412 1028 -428 1044 -28 27 -82 34
-166 21z m664 -2191 c36 -43 35 -91 -3 -130 -39 -38 -87 -39 -130 -3 -42 35
-44 98 -5 138 40 39 103 37 138 -5z"/>
<path d="M1760 2450 c-29 -9 -687 -260 -744 -284 -46 -19 -65 -42 -66 -76 -1
-39 189 -532 216 -559 14 -15 34 -24 51 -24 15 0 201 66 413 147 394 150 430
168 430 217 0 32 -197 541 -217 560 -24 22 -52 29 -83 19z m-138 -267 c23 -21
24 -75 0 -96 -27 -25 -261 -109 -283 -102 -46 15 -64 70 -36 108 15 21 231
105 271 106 16 1 38 -6 48 -16z"/>
<path d="M1690 1504 c-206 -79 -385 -149 -398 -156 -24 -12 -38 -49 -33 -83 2
-11 46 -132 98 -270 96 -256 118 -295 166 -295 37 0 790 291 816 316 18 17 25
33 24 56 -2 47 -197 546 -219 563 -11 8 -32 14 -49 14 -16 0 -199 -65 -405
-145z m235 -129 c31 -30 32 -65 3 -92 -27 -23 -237 -103 -273 -103 -33 0 -68
46 -60 80 3 14 15 32 27 40 27 19 237 99 261 99 10 1 29 -10 42 -24z"/>
</g>
</svg>
