<svg width="80" height="80" viewBox="0 0 80 80" fill="none" xmlns="http://www.w3.org/2000/svg">
<path d="M40 5C32.7092 5.0086 25.7195 7.90868 20.5641 13.0641C15.4087 18.2195 12.5086 25.2092 12.5 32.5C12.4913 38.4581 14.4375 44.2545 18.04 49C18.04 49 18.79 49.9875 18.9125 50.13L40 75L61.0975 50.1175C61.2075 49.985 61.96 49 61.96 49L61.9625 48.9925C65.5633 44.249 67.5086 38.4553 67.5 32.5C67.4914 25.2092 64.5913 18.2195 59.436 13.0641C54.2806 7.90868 47.2908 5.0086 40 5ZM40 42.5C38.0222 42.5 36.0888 41.9135 34.4443 40.8147C32.7998 39.7159 31.5181 38.1541 30.7612 36.3268C30.0044 34.4996 29.8063 32.4889 30.1922 30.5491C30.578 28.6093 31.5304 26.8275 32.929 25.4289C34.3275 24.0304 36.1093 23.078 38.0491 22.6921C39.9889 22.3063 41.9996 22.5043 43.8269 23.2612C45.6541 24.0181 47.2159 25.2998 48.3147 26.9443C49.4135 28.5888 50 30.5222 50 32.5C49.9967 35.1511 48.9421 37.6928 47.0674 39.5674C45.1928 41.4421 42.6512 42.4967 40 42.5Z" fill="white"/>
</svg>
