<svg width="170" height="120" viewBox="0 0 170 120" fill="none" xmlns="http://www.w3.org/2000/svg">
<path fill-rule="evenodd" clip-rule="evenodd" d="M6.71714 0.20112C4.41108 0.669532 2.27578 2.43381 0.96449 4.95374L0.357789 6.1198L0.287598 54.0887L0.217407 102.058L0.776512 103.592C1.43942 105.412 3.13985 107.276 4.99142 108.212L6.27421 108.861L37.6716 108.935L69.069 109.008V111.766V114.523H62.8702C56.133 114.523 55.4843 114.646 54.8682 116.034C54.3564 117.188 54.489 118.038 55.3316 119.007L56.1163 119.909L84.5775 119.982C105.571 120.036 113.235 119.972 113.787 119.737C115.925 118.83 116.186 116.156 114.252 114.983C113.603 114.59 112.595 114.523 107.283 114.523H101.071V111.766V109.008L132.469 108.935L163.866 108.861L165.129 108.222C166.74 107.407 168.367 105.737 169.161 104.082L169.783 102.785V54.4524V6.1198L169.166 4.93357C168.215 3.10522 166.791 1.65469 165.12 0.81149L163.597 0.0436913L85.7425 0.00336911C42.9224 -0.0187258 7.36095 0.0702072 6.71714 0.20112ZM163.221 6.06042C163.744 6.42084 164.273 7.10164 164.456 7.64849C164.699 8.37265 164.781 18.8293 164.792 50.6549L164.807 92.7043H85.0678H5.32785L5.39777 50.1917L5.46743 7.67914L6.0311 6.89947C6.34117 6.47055 6.88575 5.96624 7.24128 5.77871C7.74982 5.51026 24.3556 5.43651 85.0976 5.43348L162.307 5.42933L163.221 6.06042ZM81.2248 15.3853C79.0688 15.7822 75.3159 17.3228 73.5063 18.554C69.5646 21.2355 66.3377 25.5517 64.839 30.148C64.1772 32.1774 64.1183 32.7179 64.1183 36.7765C64.1183 40.8351 64.1772 41.3756 64.839 43.405C67.8295 52.5755 75.7352 58.4572 85.0702 58.4572C92.4762 58.4572 98.6842 55.0288 102.792 48.671C105.119 45.0687 106.182 41.296 106.179 36.6566C106.172 26.968 100.268 18.913 90.9866 15.9313C88.8279 15.2381 83.6107 14.9462 81.2248 15.3853ZM89.0654 21.0573C95.9188 22.8733 100.818 29.2648 100.896 36.4909C100.91 37.8633 100.762 39.6696 100.566 40.505C99.9731 43.0291 98.4545 45.8821 96.6306 47.8972C94.7013 50.0285 92.817 51.2835 90.001 52.312C88.3307 52.9221 87.575 53.0326 85.0702 53.0326C82.5654 53.0326 81.8097 52.9221 80.1394 52.312C77.328 51.2851 75.4396 50.029 73.523 47.9118C70.5188 44.5926 69.2449 41.2308 69.251 36.6384C69.2607 29.4145 73.903 23.1652 80.7674 21.1361C82.8639 20.516 86.879 20.4782 89.0654 21.0573ZM86.8182 34.2941C84.2298 35.8833 82.0007 37.1853 81.8646 37.1872C81.7285 37.1891 80.9978 36.5072 80.2408 35.6718C79.0126 34.3162 78.7477 34.1527 77.782 34.1527C76.1238 34.1527 75.1169 35.4066 75.2234 37.3383C75.2541 37.8962 78.1574 41.7313 79.4501 42.9217C80.755 44.1233 81.4951 43.864 87.9851 39.9336C91.2628 37.9484 94.1568 36.0703 94.4155 35.7601C95.1835 34.8399 95.0345 33.1579 94.1 32.1982C92.7839 30.8468 92.1237 31.0368 86.8182 34.2941ZM60.8667 67.0015C59.8687 67.4252 59.2652 68.3874 59.2652 69.5549C59.2652 70.4591 59.4276 70.8148 60.1376 71.4661L61.0097 72.2665H85.0702H109.131L110.003 71.4661C111.18 70.3862 111.236 68.7705 110.136 67.6404L109.396 66.8808L85.4005 66.827C72.2025 66.7974 61.1625 66.8759 60.8667 67.0015ZM60.1099 78.4572C59.1071 79.4117 58.9245 80.4455 59.5476 81.6403C59.8902 82.297 60.3732 82.7328 61.0014 82.9532C62.2108 83.3769 78.1636 83.4399 79.6123 83.0267C81.703 82.4304 82.3909 80.1055 80.9225 78.5975L80.1365 77.7902H70.4736H60.8107L60.1099 78.4572ZM164.806 99.2637C164.803 101.083 164.31 102.354 163.379 102.936C162.535 103.465 161.306 103.474 84.9772 103.474L7.43303 103.476L6.6612 102.911C5.82752 102.301 5.337 100.953 5.33458 99.2637L5.33296 98.228H85.0702H164.807L164.806 99.2637ZM95.6929 111.761V114.523H85.0702H74.4475V111.761V108.999H85.0702H95.6929V111.761Z" fill="url(#paint0_linear_73_2081)"/>
<defs>
<linearGradient id="paint0_linear_73_2081" x1="0.217407" y1="0" x2="173.28" y2="114.724" gradientUnits="userSpaceOnUse">
<stop stop-color="#208275"/>
<stop offset="1" stop-color="#2DD4BF"/>
</linearGradient>
</defs>
</svg>
