<svg width="104" height="120" viewBox="0 0 104 120" fill="none" xmlns="http://www.w3.org/2000/svg">
<path fill-rule="evenodd" clip-rule="evenodd" d="M23.1296 0.100594C22.8464 0.144767 22.3904 0.392337 22.116 0.650899C21.6173 1.12071 21.6173 1.1211 21.6173 4.46768V7.81466H11.8762C4.73499 7.81466 1.99992 7.87729 1.62883 8.04927C0.496843 8.57366 0.572335 4.70151 0.572335 62.1844V115.003L1.13572 115.644L1.69911 116.285L33.7168 116.383L65.7345 116.481L68.0042 117.624C69.4815 118.368 71.066 118.981 72.5415 119.379C74.6929 119.96 74.9968 119.992 78.4773 120C82.3085 120.008 83.1221 119.901 86.1037 119.001C90.7732 117.592 95.5017 114.182 98.633 109.965C99.926 108.224 101.799 104.37 102.407 102.202C104.896 93.3133 102.785 84.3626 96.6439 77.758C93.7824 74.6805 90.1671 72.3615 86.2002 71.0591L84.4626 70.4884L84.3645 39.5933C84.3106 22.601 84.2454 8.67477 84.2197 8.6461C84.194 8.61763 83.8907 8.41915 83.5455 8.20515C82.9419 7.83095 82.5475 7.81603 73.2161 7.81544L63.5141 7.81466L63.5138 4.82068C63.5136 1.32214 63.3058 0.614382 62.1626 0.217998C61.6556 0.0422862 56.7603 -0.0117048 42.5657 0.00203807C32.1591 0.012247 23.4129 0.0566166 23.1296 0.100594ZM59.6527 9.67976V15.4714H42.4692H25.2857V9.67976V3.88813H42.4692H59.6527V9.67976ZM29.1471 9.77792V11.7412H31.0779H33.0086V9.77792V7.81466H31.0779H29.1471V9.77792ZM52.1228 9.77792V11.7412H53.957H55.7912V9.77792V7.81466H53.957H52.1228V9.77792ZM21.6173 14.9957V18.2502L22.1817 18.8241L22.746 19.3979H25.9466H29.1471L29.1499 20.9195C29.1512 21.7562 29.2049 22.6397 29.2688 22.8827L29.3852 23.3245H19.4224H9.45988L8.8293 23.8973L8.19872 24.4702V63.7026C8.19872 85.2804 8.26282 103.167 8.34121 103.451C8.4196 103.734 8.72369 104.132 9.01696 104.334C9.52957 104.688 10.4438 104.704 32.719 104.758L55.8878 104.814L56.5145 106.168C57.2557 107.768 58.5556 109.76 59.8823 111.328L60.8376 112.457H32.6358H4.4338V62.099V11.7412H13.0255H21.6173V14.9957ZM80.6976 40.7975V69.8539H78.7669H76.8362V47.3837C76.8362 30.3806 76.78 24.7883 76.6055 24.3988C76.1236 23.3231 76.1384 23.3245 65.5511 23.3245H55.7912V21.3612V19.3979H59.037C62.0655 19.3979 62.3121 19.3704 62.7173 18.9864C63.4124 18.3277 63.5141 17.7776 63.5141 14.6733V11.7412H72.1059H80.6976V40.7975ZM51.9298 21.3612V23.3245H42.5864C34.2445 23.3245 33.2304 23.2911 33.1258 23.0139C33.0613 22.8431 33.0086 21.9596 33.0086 21.0506V19.3979H42.4692H51.9298V21.3612ZM31.0842 28.3422C34.7339 34.8286 43.7635 36.8682 49.9276 32.5987C51.3641 31.6037 53.0177 29.8337 53.869 28.3799L54.5299 27.251H63.7524H72.9747V48.9451C72.9747 67.3065 72.9336 70.6392 72.7071 70.6392C72.126 70.6392 69.3044 71.7217 67.5239 72.6278L65.6449 73.5841H40.735H15.8251V75.5473V77.5106H38.3251H60.825L59.5739 79.0735C58.8858 79.9333 58.228 80.8167 58.1122 81.0368C57.9021 81.4359 57.8368 81.4371 36.8633 81.4371H15.8251V83.4004V85.3637H35.8242C51.7489 85.3637 55.8028 85.4137 55.7223 85.6091C55.6667 85.7441 55.3887 86.5832 55.1043 87.4742L54.5872 89.0939H35.2062H15.8251V91.0571V93.0204H34.8928H53.9607L53.9895 95.3272C54.0146 97.348 54.2439 99.4411 54.5592 100.53C54.6536 100.856 53.5514 100.873 33.3111 100.873H11.9636V64.0622V27.251H21.2171H30.4703L31.0842 28.3422ZM49.1229 28.2446C48.5072 28.8832 47.5837 29.5321 46.5382 30.0606L44.9118 30.883H42.4837C40.0932 30.883 40.0334 30.872 38.6077 30.1766C37.2622 29.5201 35.1324 27.8364 35.1324 27.4291C35.1324 27.3256 38.2615 27.251 42.6067 27.251H50.0811L49.1229 28.2446ZM15.8251 44.7241V46.6873H42.4692H69.1133V44.7241V42.7608H42.4692H15.8251V44.7241ZM15.8251 52.3808V54.3441H42.4692H69.1133V52.3808V50.4175H42.4692H15.8251V52.3808ZM15.8251 60.1357V62.0008H42.4692H69.1133V60.1357V58.2706H42.4692H15.8251V60.1357ZM15.8251 67.8906V69.8539H42.4692H69.1133V67.8906V65.9273H42.4692H15.8251V67.8906ZM84.2695 74.4512C89.9416 76.1573 94.6939 80.1039 97.2884 85.2627C100.295 91.2407 100.379 98.3532 97.5128 104.305C91.1545 117.508 74.0326 120.437 63.8918 110.056C60.5101 106.595 58.4852 102.346 57.894 97.4729C56.6666 87.3552 63.0828 77.4813 72.7817 74.5626C75.0719 73.8733 75.7627 73.7988 79.2496 73.8658C82.1293 73.921 82.745 73.9926 84.2695 74.4512ZM85.621 79.6661C85.4086 79.7581 80.7822 84.3706 75.3399 89.9161L65.4449 99.9988V103.691V107.382L66.0092 107.956L66.5736 108.53H70.2007H73.8275L83.7366 98.4685C93.7774 88.273 94.0786 87.9251 93.8627 86.7766C93.7509 86.1821 88.0325 80.1997 87.1851 79.7909C86.4578 79.4401 86.1917 79.4187 85.621 79.6661ZM89.1929 87.2231C89.1929 87.3332 85.392 91.289 80.7467 96.0136L72.3007 104.604H70.7069H69.1133V103.181V101.758L77.7506 92.9741L86.3879 84.1894L87.7904 85.6061C88.5617 86.3851 89.1929 87.1127 89.1929 87.2231Z" fill="url(#paint0_linear_95_1043)"/>
<defs>
<linearGradient id="paint0_linear_95_1043" x1="0.571289" y1="0" x2="130.649" y2="52.3059" gradientUnits="userSpaceOnUse">
<stop stop-color="#208275"/>
<stop offset="1" stop-color="#2DD4BF"/>
</linearGradient>
</defs>
</svg>
