<svg width="120" height="120" viewBox="0 0 120 120" fill="none" xmlns="http://www.w3.org/2000/svg">
<path fill-rule="evenodd" clip-rule="evenodd" d="M30.8216 0.344847C29.6283 0.795966 28.095 2.25711 27.549 3.46371L27.0955 4.46556L27.0003 31.5409L26.9051 58.616L13.4835 63.413L0.0618105 68.2097L0.0134549 88.9287C-0.0251919 105.404 0.0138357 109.666 0.203833 109.735C0.335194 109.784 6.87944 112.113 14.7468 114.912L29.0513 120L34.7047 117.981L40.3584 115.962H70.1029C103.501 115.962 100.818 116.082 102.57 114.51C103.114 114.021 103.739 113.204 104.046 112.579L104.579 111.495L104.632 88.6498L104.685 65.8048L110.153 65.7419C115.281 65.6828 115.677 65.6533 116.512 65.2684C117.769 64.6882 119.024 63.463 119.55 62.3006C119.989 61.3321 120 61.1726 120 55.984V50.6611L119.493 49.7106C118.885 48.5713 117.836 47.5369 116.668 46.9267C115.834 46.4906 115.666 46.4773 110.248 46.4208L104.684 46.3626L104.631 25.5092C104.571 1.60657 104.727 3.62378 102.785 1.70809C100.875 -0.175662 104.581 -0.00589759 65.7422 0.0112119C34.3419 0.0248994 31.5983 0.0511349 30.8216 0.344847ZM99.6971 4.0711C99.9857 4.22014 100.324 4.56632 100.449 4.84045C100.621 5.21705 100.677 10.355 100.677 25.8613V46.3837H98.7728H96.8691V30.8902V15.3966H65.8374H34.8058V37.6516C34.8058 59.5422 34.7997 59.9049 34.4388 59.7905C34.237 59.7264 33.4016 59.4303 32.5826 59.132L31.0934 58.5898L31.0439 32.003C31.0072 12.3264 31.0512 5.27826 31.213 4.8857C31.6828 3.74526 29.4097 3.81616 65.7994 3.8078C94.322 3.80133 99.2488 3.83955 99.6971 4.0711ZM50.4168 9.59688V11.5945H62.0365H73.6563L73.602 9.64593L73.5478 7.69735L61.9823 7.6483L50.4168 7.59944V9.59688ZM77.4505 9.5984V11.5945H79.3543H81.2581V9.5984V7.6023H79.3543H77.4505V9.5984ZM93.0615 32.8863V46.3837H84.1233H75.1852L67.8711 49.1115C63.6511 50.6852 60.2776 52.0521 59.8963 52.3424C57.6767 54.033 57.5608 57.6248 59.6661 59.4753C60.3875 60.1093 61.4928 60.5846 67.279 62.7485C73.5325 65.0874 74.0385 65.3098 73.9207 65.6699C73.8504 65.8843 73.7501 66.6299 73.6974 67.3268C73.5706 69.007 73.9833 70.2295 75.0932 71.4624C76.2726 72.7722 77.5108 73.3304 79.5963 73.4921L81.2659 73.6216L81.2145 77.3497C81.1648 80.934 81.1482 81.0779 80.7821 81.0779C80.4958 81.0779 79.5469 79.8046 76.9568 75.9451C72.9018 69.9028 72.657 69.6716 70.3113 69.6716C69.127 69.6716 68.827 69.7469 68.0169 70.2468C67.4398 70.6031 66.8655 71.1765 66.5087 71.7521L65.9326 72.6821L65.8747 76.9399C65.8327 80.0447 65.7577 81.1781 65.5979 81.1249C65.4774 81.0847 64.6786 78.2565 63.8231 74.8398C62.9673 71.4232 62.1609 68.3717 62.031 68.0586C61.715 67.2966 60.532 66.2552 59.6538 65.9657C58.4984 65.5849 57.0125 65.8049 56.0198 66.5037C55.5498 66.8345 55.115 67.1052 55.0535 67.1052C54.9922 67.1052 51.3108 65.8085 46.8729 64.2236L38.8038 61.3418V40.3654V19.3888H65.9326H93.0615V32.8863ZM42.6113 28.9891V34.7873H65.8374H89.0636V28.9891V23.1909H65.8374H42.6113V28.9891ZM85.256 28.8941V30.7951H65.8374H46.4189V28.8941V26.993H65.8374H85.256V28.8941ZM42.6113 40.5867V42.5839L58.0795 42.5352L73.5478 42.4866L73.602 40.538L73.6563 38.5894H58.1338H42.6113V40.5867ZM42.6113 48.2848V50.1858H50.3216H58.0319V48.2848V46.3837H50.3216H42.6113V48.2848ZM96.8691 52.1819V54.178H87.1598H77.4505V52.1819V50.1858H87.1598H96.8691V52.1819ZM104.63 56.0316L104.68 61.7822H102.678H100.677V55.9774V50.1725L102.628 50.2267L104.579 50.2809L104.63 56.0316ZM115.063 50.4641C116.167 50.9248 116.288 51.4789 116.288 56.0918C116.288 60.4735 116.158 61.1402 115.222 61.5657C114.928 61.6995 113.551 61.7822 111.614 61.7822H108.482V55.984V50.1858H111.439C113.605 50.1858 114.575 50.2603 115.063 50.4641ZM73.6429 55.984C73.6429 59.7361 73.5893 60.8313 73.405 60.8304C73.2742 60.8296 72.396 60.5433 71.4536 60.1939L69.7402 59.5586V56.0656V52.5724L71.5488 51.865C72.5435 51.4761 73.4215 51.1529 73.5002 51.147C73.5788 51.1411 73.6429 53.3178 73.6429 55.984ZM65.7601 57.9307C65.6492 58.0413 63.0558 57.088 62.4582 56.7167C61.9945 56.4285 61.8749 55.6268 62.26 55.3892C62.3868 55.3109 63.222 54.9719 64.1162 54.6356L65.7422 54.0244L65.7967 55.9319C65.8268 56.9811 65.8102 57.8805 65.7601 57.9307ZM96.8691 59.8812V61.7822H87.1598H77.4505V59.8812V57.9801H87.1598H96.8691V59.8812ZM41.6118 66.4651L54.2244 70.9613V88.9471V106.933L43.3252 110.818C37.3306 112.955 31.6551 114.975 30.7127 115.308L28.9993 115.913L16.4343 111.423L3.86937 106.932L3.82082 88.9526L3.77228 70.9729L16.2906 66.4904C23.1756 64.0249 28.8517 61.9991 28.9041 61.9883C28.9564 61.9777 34.675 63.9922 41.6118 66.4651ZM80.7016 66.3301C81.2118 66.8396 81.2581 66.9978 81.2581 68.2312V69.5765H80.1247C78.7632 69.5765 78.0854 69.3007 77.7218 68.5984C76.7059 66.6367 79.1473 64.7781 80.7016 66.3301ZM93.0154 77.3233L92.9663 88.8722L75.4974 88.9207L58.0285 88.9692L58.0778 79.3204C58.1098 73.0475 58.1938 69.6716 58.3175 69.6716C58.4222 69.6716 59.2361 72.538 60.1261 76.0413C61.0161 79.5445 61.9198 82.7086 62.1342 83.0725C62.9384 84.4372 64.9887 85.3163 66.5483 84.965C67.5634 84.7365 68.6986 83.8538 69.202 82.9016C69.6246 82.1024 69.645 81.8817 69.645 78.117C69.645 75.9462 69.697 74.0349 69.7606 73.8695C69.8241 73.7041 70.068 73.5687 70.3024 73.5687C70.6485 73.5687 71.3466 74.4955 74.0098 78.4906C75.8142 81.1975 77.5194 83.631 77.7989 83.8985C79.5033 85.5286 82.7733 85.2556 84.2194 83.3624C85.1353 82.1632 85.2387 81.5661 85.2476 77.4184L85.256 73.5687H87.1598H89.0636V71.5726V69.5765H87.1836H85.3038L85.2099 68.0082C85.1583 67.1455 85.0529 66.29 84.9754 66.1071C84.8436 65.7961 85.1037 65.7744 88.9495 65.7744H93.0644L93.0154 77.3233ZM100.672 88.3494C100.668 109.452 100.647 110.951 100.339 111.33C100.158 111.553 99.8232 111.831 99.5945 111.948C99.2943 112.101 92.5163 112.156 75.2261 112.147L51.2735 112.134L52.4158 111.701C53.044 111.463 54.5648 110.903 55.795 110.458L58.0319 109.647V109.003V108.358H65.7329C74.2339 108.358 74.9946 108.283 76.0676 107.343C77.242 106.313 77.4421 105.603 77.4421 102.465C77.4421 100.189 77.3808 99.5732 77.0901 98.9343C76.6439 97.9533 75.5473 97.0448 74.4874 96.7783C73.9609 96.646 70.8493 96.5715 65.8414 96.5715H58.0182L58.0727 94.7179L58.1271 92.8644L77.4981 92.8159L96.8691 92.7676V79.2709V65.7744H98.7728H100.677L100.672 88.3494ZM22.9051 69.8404C19.1215 70.7588 16.0854 74.1512 15.5702 78.0362C15.4402 79.0181 15.3888 84.1386 15.4255 92.4842C15.4792 104.688 15.5024 105.449 15.8386 106.077C16.3418 107.017 16.7056 107.389 17.5766 107.855C18.3233 108.255 18.5359 108.264 28.4281 108.324C35.5858 108.367 38.8129 108.321 39.532 108.165C40.8029 107.888 42.0864 106.741 42.4 105.601C42.5428 105.083 42.6085 100.674 42.6069 91.7238C42.6045 77.456 42.5791 77.0579 41.5319 74.9027C40.406 72.5855 37.4591 70.3313 34.8441 69.7866C33.4459 69.4956 24.1538 69.5374 22.9051 69.8404ZM35.2286 74.0178C36.3936 74.5381 37.5059 75.5607 38.036 76.5983C38.4253 77.36 38.7999 79.2479 38.8022 80.4601L38.8038 81.173H29.0945H19.3852V79.6859C19.3852 77.5967 19.7808 76.5676 21.0855 75.2635C22.7 73.6495 22.9281 73.6014 29.0414 73.5838C34.0942 73.5691 34.249 73.58 35.2286 74.0178ZM38.8038 94.7655V104.366H29.0945H19.3852V94.7655V85.1652H29.0945H38.8038V94.7655ZM23.1927 90.8683V92.7694H25.0965H27.0003V96.6665V100.564H28.9993H30.9983V96.6665V92.7694H32.902H34.8058V90.8683V88.9673H28.9993H23.1927V90.8683ZM73.6429 102.465V104.366H65.8374H58.0319V102.465V100.564H65.8374H73.6429V102.465Z" fill="url(#paint0_linear_95_1049)"/>
<defs>
<linearGradient id="paint0_linear_95_1049" x1="0" y1="0" x2="144.495" y2="67.787" gradientUnits="userSpaceOnUse">
<stop stop-color="#208275"/>
<stop offset="1" stop-color="#2DD4BF"/>
</linearGradient>
</defs>
</svg>
