<svg width="18" height="18" viewBox="0 0 18 18" fill="none" xmlns="http://www.w3.org/2000/svg">
<path id="Vector" d="M8.25933 1.50638C8.51532 0.831207 9.48408 0.831207 9.74086 1.50638L11.3968 6.09337C11.4546 6.2428 11.5563 6.37119 11.6885 6.46159C11.8208 6.552 11.9774 6.60017 12.1376 6.59975H16.207C16.9589 6.59975 17.2869 7.53571 16.6958 7.99409L13.7999 10.5996C13.6702 10.6993 13.5754 10.8375 13.5291 10.9945C13.4828 11.1514 13.4874 11.319 13.5423 11.4731L14.5998 15.9553C14.8574 16.6753 14.0239 17.2937 13.3935 16.8505L9.46008 14.3546C9.32537 14.2599 9.16474 14.2091 9.0001 14.2091C8.83545 14.2091 8.67482 14.2599 8.54012 14.3546L4.60669 16.8505C3.97712 17.2937 3.14276 16.6745 3.40035 15.9553L4.4579 11.4731C4.51276 11.319 4.51738 11.1514 4.47111 10.9945C4.42483 10.8375 4.33003 10.6993 4.20031 10.5996L1.30444 7.99409C0.712465 7.53571 1.04205 6.59975 1.79242 6.59975H5.86184C6.02206 6.60029 6.17868 6.55216 6.31095 6.46174C6.44323 6.37131 6.54493 6.24286 6.6026 6.09337L8.25853 1.50638H8.25933Z" fill="white" stroke="#7D7D7D" stroke-linecap="round" stroke-linejoin="round"/>
</svg>
