<svg width="16" height="16" viewBox="0 0 16 16" fill="none" xmlns="http://www.w3.org/2000/svg">
<path id="Vector" d="M7.25933 0.506378C7.51532 -0.168793 8.48408 -0.168793 8.74086 0.506378L10.3968 5.09337C10.4546 5.2428 10.5563 5.37119 10.6885 5.46159C10.8208 5.552 10.9774 5.60017 11.1376 5.59975H15.207C15.9589 5.59975 16.2869 6.53571 15.6958 6.99409L12.7999 9.59958C12.6702 9.6993 12.5754 9.83755 12.5291 9.99448C12.4828 10.1514 12.4874 10.319 12.5423 10.4731L13.5998 14.9553C13.8574 15.6753 13.0239 16.2937 12.3935 15.8505L8.46008 13.3546C8.32537 13.2599 8.16474 13.2091 8.0001 13.2091C7.83545 13.2091 7.67482 13.2599 7.54012 13.3546L3.60669 15.8505C2.97712 16.2937 2.14276 15.6745 2.40035 14.9553L3.4579 10.4731C3.51276 10.319 3.51738 10.1514 3.47111 9.99448C3.42483 9.83755 3.33003 9.6993 3.20031 9.59958L0.304438 6.99409C-0.287535 6.53571 0.04205 5.59975 0.792417 5.59975H4.86184C5.02206 5.60029 5.17868 5.55216 5.31095 5.46174C5.44323 5.37131 5.54493 5.24286 5.6026 5.09337L7.25853 0.506378H7.25933Z" fill="#FBC400"/>
</svg>
