<svg width="121" height="120" viewBox="0 0 121 120" fill="none" xmlns="http://www.w3.org/2000/svg">
<path fill-rule="evenodd" clip-rule="evenodd" d="M69.7143 0.61169C67.924 1.53051 67.1625 2.69745 66.4226 5.65629C66.2352 6.40561 66.1492 6.48422 65.1701 6.80125C64.5918 6.98838 63.1315 7.65592 61.9245 8.28444L59.7303 9.42722L58.2097 8.67414C56.8589 8.00483 56.5259 7.92087 55.2239 7.92087C53.1688 7.92087 52.1973 8.45256 50.2163 10.6613C47.9972 13.1356 47.6079 13.9389 47.61 16.0398C47.6117 17.8465 47.7305 18.201 48.9716 20.0992L49.6189 21.0893L48.9149 23.0256C48.3136 24.6789 48.1385 24.9781 47.7166 25.0725C45.2674 25.6214 44.047 26.3058 43.0606 27.6832C42.1614 28.9387 41.9196 30.0223 41.9196 32.7966C41.9196 35.7865 42.2914 37.0263 43.587 38.3566C44.5123 39.3067 45.5146 39.8232 47.1736 40.2046L48.2533 40.4527L48.83 42.1458L49.4066 43.839L48.5929 45.0387C47.5735 46.5409 47.351 47.0767 47.2006 48.3914C46.9603 50.4902 48.1495 52.777 50.9402 55.5825C52.7396 57.3915 55.1471 57.6766 57.7799 56.3926L59.1816 55.7091L61.1083 56.7614C62.1681 57.34 63.6859 58.0527 64.4813 58.3449C65.2768 58.6374 65.9937 58.9344 66.0743 59.0051C66.1551 59.076 66.3983 59.7901 66.6149 60.5923C67.0804 62.3176 67.7468 63.4074 68.8784 64.2937C70.0751 65.2309 71.3193 65.5452 73.8338 65.5452C76.2827 65.5452 77.5247 65.2466 78.6943 64.3767C79.7927 63.5596 80.3056 62.7357 80.9688 60.7236L81.5475 58.9683L83.3304 58.3146C84.311 57.955 85.7567 57.2984 86.5429 56.8552L87.9725 56.0495L89.4844 56.7823C90.8028 57.4216 91.1811 57.5158 92.4425 57.5204C94.5787 57.5277 95.6403 56.9326 97.6585 54.5954C99.635 52.3065 99.9985 51.59 100.115 49.751C100.222 48.071 99.9709 47.2387 98.8211 45.4658L98.0632 44.2973L98.4595 43.2876C98.6774 42.7321 98.9879 41.8656 99.1493 41.3618C99.4353 40.4691 99.4698 40.4402 100.522 40.2091C102.961 39.6739 104.81 38.2016 105.444 36.2907C105.799 35.2221 105.869 30.6534 105.549 29.4702C105 27.4415 103.177 25.8331 100.792 25.2745C100.106 25.1137 99.5147 24.9523 99.4794 24.9161C99.4439 24.8799 99.158 24.1264 98.8434 23.2416L98.2719 21.6333L99.1221 20.3784C100.839 17.8457 100.975 15.3706 99.5207 13.172C98.3689 11.4314 96.2288 9.25197 95.1933 8.76524C93.5746 8.00424 91.8904 8.08028 89.9803 9.00029L88.4893 9.71871L86.0789 8.4486C84.7532 7.75017 83.1792 7.02066 82.5814 6.82759L81.4942 6.4765L81.08 4.86579C80.5218 2.69627 79.6528 1.50576 77.9981 0.643571C76.7657 0.00138615 76.7565 0 73.8348 0C70.9483 0 70.8895 0.00871384 69.7143 0.61169ZM75.8305 7.77295C76.307 9.90347 76.7218 10.8191 77.4042 11.2482C77.6298 11.3902 78.5672 11.7302 79.487 12.0041C81.5756 12.6255 83.7959 13.691 85.7661 15.0172C87.8005 16.3865 88.3021 16.3883 90.9277 15.0352C91.9999 14.4827 92.9367 14.1041 93.0096 14.1936C93.0823 14.2833 93.5133 14.8245 93.9674 15.3964L94.7927 16.4362L93.8326 17.7727C91.7342 20.6939 91.6669 21.0854 92.8121 23.7129C93.2275 24.666 93.7605 26.1141 93.9963 26.931C94.8111 29.752 94.9717 29.9029 97.9869 30.6789L100.059 31.2122L100.115 32.8009L100.17 34.3896L98.1866 34.8461C95.0151 35.5756 94.6612 35.878 93.8949 38.5152C93.6101 39.4954 93.0264 41.0858 92.5977 42.0495C91.503 44.5111 91.5745 45.0969 93.2697 47.5413L94.543 49.3771L93.57 50.5304C93.0349 51.1647 92.5341 51.6837 92.4567 51.6837C92.3796 51.6837 91.5855 51.2708 90.6921 50.7662C89.4763 50.0795 88.8012 49.8262 88.0072 49.7593C87.0178 49.6757 86.8626 49.726 85.6932 50.5108C83.9095 51.7078 81.2347 52.9637 79.352 53.4883C76.9746 54.1504 76.6369 54.5461 75.9421 57.4831L75.39 59.8172L73.8522 59.7604L72.3143 59.7036L71.7871 57.5431C71.4971 56.3548 71.0925 55.1518 70.8879 54.8698C70.5015 54.337 69.7573 53.9885 67.4703 53.2688C65.8395 52.756 63.4188 51.5367 62.1017 50.5651C60.9829 49.7397 60.0573 49.3074 59.4084 49.3074C59.1571 49.3074 58.0642 49.753 56.9796 50.2975C55.8953 50.8421 54.9396 51.2876 54.8558 51.2876C54.7721 51.2876 54.3023 50.7631 53.8118 50.1221L52.9201 48.9563L53.5582 48.0924C55.9825 44.8099 56.0689 44.3644 54.8299 41.5388C54.4003 40.5592 53.8648 39.0515 53.6397 38.1883C53.0564 35.9501 52.5057 35.4754 49.7688 34.8514L47.7047 34.3809V32.7429V31.1047L48.4278 30.9092C48.8256 30.8017 49.7543 30.5601 50.4917 30.3724C52.4366 29.8771 52.9972 29.2799 53.607 27.0537C53.8719 26.0864 54.4815 24.4379 54.9614 23.3903C56.1491 20.7974 56.1017 20.2549 54.4836 17.9321C53.831 16.995 53.3005 16.119 53.3052 15.9855C53.3098 15.852 53.7313 15.2639 54.242 14.6788L55.1703 13.6146L57.2708 14.7451C59.9003 16.1604 60.2928 16.1546 62.5497 14.6679C64.4528 13.4142 66.1918 12.5974 68.2848 11.9736C70.1806 11.4088 70.7145 11.0781 71.1087 10.2252C71.344 9.71613 72.1947 6.28382 72.1947 5.84382C72.1947 5.78818 72.9106 5.74303 73.7856 5.74323L75.3765 5.74402L75.8305 7.77295ZM71.8395 20.6054C69.7747 20.984 67.1149 22.3616 65.6173 23.8284C64.0662 25.3474 62.811 27.5349 62.2774 29.6486C61.8921 31.176 61.8862 34.212 62.2655 35.7509C63.5683 41.0364 68.4626 44.9509 73.7685 44.9509C75.8422 44.9509 77.0214 44.6612 79.0848 43.6446C87.4176 39.5392 88.1245 27.7559 80.3555 22.4604C78.0498 20.8889 74.5051 20.1166 71.8395 20.6054ZM76.5266 26.9276C77.7243 27.5228 78.7847 28.6116 79.465 29.9441C79.9259 30.8468 79.9996 31.2215 80.0019 32.6736C80.0042 34.1195 79.9284 34.5158 79.4646 35.4861C77.9682 38.615 74.1873 40.016 71.203 38.5471C69.9328 37.922 68.6659 36.5936 68.0893 35.2827C67.5098 33.9651 67.5075 31.5429 68.0845 30.2553C68.8838 28.472 69.8661 27.5026 71.7051 26.6826C72.8396 26.1767 75.2639 26.2999 76.5266 26.9276ZM35.1972 68.3252C28.3669 68.9995 20.2181 72.5789 13.885 77.6865C13.2612 78.1897 10.2952 79.8998 7.2935 81.4871C1.53003 84.5351 0.792629 85.0737 0.547535 86.4151C0.479271 86.7892 0.485249 87.3034 0.560841 87.5579C0.636432 87.8124 4.13755 94.6483 8.34078 102.749C16.7864 119.024 16.489 118.552 18.2566 118.473C19.1253 118.434 19.709 118.114 24.8394 114.865C27.9356 112.904 30.7862 111.163 31.1742 110.997C32.596 110.387 33.2545 110.553 37.0017 112.47C46.3178 117.234 54.8951 119.995 60.3928 120C62.085 120.001 66.3223 119.522 69.1094 119.014C85.3997 116.044 103.251 106.223 116.601 92.8882C118.688 90.8041 119.176 90.1975 119.783 88.9367C120.491 87.4658 120.5 87.4171 120.5 85.0503C120.5 82.665 120.496 82.646 119.751 81.097C117.53 76.4817 112.205 74.1847 107.56 75.8378C105.527 76.5613 91.5302 84.9024 86.1533 88.5947C85.1161 89.307 84.2443 89.866 84.2161 89.8371C84.1878 89.8082 84.2977 89.3431 84.4602 88.8035C85.2659 86.1298 83.8401 83.226 80.9965 81.7485C79.2475 80.84 77.296 80.4261 72.7033 79.9897C66.2485 79.3764 62.3709 78.6105 59.4865 77.3796C58.3501 76.8946 57.7209 76.4417 56.4011 75.1597C55.4892 74.2738 54.3262 73.2554 53.817 72.8966C52.5774 72.0239 48.9294 70.2555 47.075 69.6288C43.6327 68.4654 38.9661 67.9531 35.1972 68.3252ZM42.9802 74.5289C45.2933 75.0451 46.9603 75.6483 48.9182 76.6774C50.4504 77.4827 51.1979 78.0497 52.8813 79.6836C55.1068 81.8434 56.4551 82.6776 59.2748 83.6396C62.1372 84.6163 67.8232 85.5775 72.2912 85.8399C73.4578 85.9086 75.0098 86.0511 75.7398 86.1569C77.1886 86.367 78.944 87.0478 78.944 87.3999C78.944 87.5219 78.3034 88.2563 77.5207 89.032C75.2836 91.2486 71.8743 92.8003 67.036 93.8033C64.4763 94.3342 59.284 94.2869 56.4603 93.7073C55.2837 93.4657 53.8166 93.0898 53.2001 92.872C50.1477 91.7936 48.3431 92.9508 48.4546 95.9154C48.4854 96.7352 49.6749 97.8643 51.0793 98.4073C55.9713 100.299 67.332 100.523 75.8586 98.8974C79.7551 98.1542 84.2873 96.5922 86.615 95.19C87.2216 94.8247 90.4948 92.7417 93.8887 90.5613C99.5835 86.9028 107.566 82.141 109.127 81.4713C110.731 80.7832 113.071 81.4555 114.156 82.9159C114.885 83.8969 115.007 85.3644 114.454 86.4783C114.027 87.3371 111.184 90.1506 107.869 92.9936C103.826 96.4615 98.3459 100.424 94.0816 102.963C91.7943 104.325 85.1425 107.664 82.6765 108.687C74.0462 112.269 63.7057 114.484 58.5034 113.864C53.6262 113.284 47.3685 111.021 39.6063 107.031C35.4519 104.896 34.1391 104.468 32.1814 104.611L30.8316 104.709L24.8055 93.1649C21.4912 86.8155 18.7794 81.5458 18.7795 81.4543C18.7797 81.1125 22.2465 78.9277 24.8537 77.6261C28.5515 75.7798 31.5341 74.8289 35.6524 74.1829C36.7935 74.0039 41.6568 74.2336 42.9802 74.5289ZM19.6739 96.1643C22.9078 102.25 25.5695 107.301 25.5891 107.389C25.6427 107.629 19.4793 111.492 19.3137 111.322C19.1639 111.168 7.40785 88.5268 7.34305 88.2672C7.28463 88.0333 13.4567 84.7777 13.6355 84.9482C13.723 85.0315 16.4403 90.0789 19.6739 96.1643Z" fill="url(#paint0_linear_95_1066)"/>
<defs>
<linearGradient id="paint0_linear_95_1066" x1="0.5" y1="0" x2="144.995" y2="67.787" gradientUnits="userSpaceOnUse">
<stop stop-color="#208275"/>
<stop offset="1" stop-color="#2DD4BF"/>
</linearGradient>
</defs>
</svg>
