<svg width="24" height="24" viewBox="0 0 24 24" fill="none" xmlns="http://www.w3.org/2000/svg">
<path fill-rule="evenodd" clip-rule="evenodd" d="M1.02466 6.72071C1.02466 5.26179 2.17818 3.81809 3.60112 3.49611L14.0493 1.13193C15.6653 0.766265 16.9753 1.81298 16.9753 3.46984V6.02582C16.9753 6.06645 16.9746 6.10701 16.973 6.1475L18.011 6.25659C19.6587 6.42977 20.9945 7.91332 20.9945 9.57017V12.2098C22.133 12.7521 22.9447 13.9384 22.9447 15.23C22.9447 16.5215 22.133 17.5372 20.9945 17.8402V20.2953C20.9945 21.9521 19.6587 23.1549 18.011 22.9817L3.98906 21.5079C2.34129 21.3347 1.00549 19.8512 1.00549 18.1943V7.46924C1.00549 7.30992 1.01784 7.15481 1.04163 7.00471C1.03041 6.91261 1.02466 6.81783 1.02466 6.72071ZM20.6696 15.6926C20.4967 15.8441 20.2566 15.914 20 15.914L19.0055 15.8099V15.8159L17.9891 15.7091C17.4398 15.6514 16.9945 15.1568 16.9945 14.6046C16.9945 14.0523 17.4398 13.6514 17.9891 13.7091L19.6747 13.8863L20 13.9218C20.2087 13.9666 20.3947 14.049 20.5449 14.168C20.6513 14.2569 20.7419 14.3648 20.8106 14.4853C20.8921 14.6388 20.9375 14.821 20.9375 15.0314C20.9375 15.2286 20.8928 15.3899 20.8156 15.5182C20.7746 15.583 20.7255 15.6415 20.6696 15.6926ZM19.0055 11.8159L17.9891 11.7091C16.3413 11.5359 15.0055 12.7387 15.0055 14.3955C15.0055 16.0524 16.3413 17.5359 17.9891 17.7091L19.0055 17.8159V20.0862C19.0055 20.6385 18.5602 21.0394 18.011 20.9817L3.98906 19.5079C3.4398 19.4502 2.99454 18.9557 2.99454 18.4034V7.6783C2.99454 7.12601 3.4398 6.72509 3.98906 6.78282L18.011 8.25659C18.5602 8.31432 19.0055 8.80883 19.0055 9.36111V11.8159ZM5.87664 4.98122L15.0247 5.94271V3.91123C15.0247 3.35895 14.588 3.01004 14.0493 3.13193L5.87664 4.98122Z" fill="currentColor"/>
</svg>
