<svg width="159" height="23" viewBox="0 0 159 23" fill="none" xmlns="http://www.w3.org/2000/svg">
<path d="M0.922852 16.082C0.922852 18.1426 1.68457 19.71 3.20801 20.7842C4.74121 21.8486 6.70898 22.3809 9.11133 22.3809C11.5234 22.3809 13.4619 21.8193 14.9268 20.6963C16.4014 19.5635 17.1387 17.9912 17.1387 15.9795C17.1387 14.0947 16.582 12.6299 15.4688 11.585C14.3555 10.5303 12.71 9.69531 10.5322 9.08008C8.62793 8.54297 7.37793 8.08398 6.78223 7.70312C6.19629 7.3125 5.90332 6.77539 5.90332 6.0918C5.90332 5.37891 6.14746 4.8125 6.63574 4.39258C7.13379 3.96289 7.91504 3.74805 8.97949 3.74805C10.0244 3.74805 10.8154 4.01172 11.3525 4.53906C11.8896 5.05664 12.1582 5.75488 12.1582 6.63379V7.0293H16.7139V6.44336C16.7139 4.54883 16.001 3.0498 14.5752 1.94629C13.1494 0.842773 11.2695 0.291016 8.93555 0.291016C6.5918 0.291016 4.72168 0.847656 3.3252 1.96094C1.92871 3.07422 1.23047 4.57324 1.23047 6.45801C1.23047 8.18652 1.78223 9.56836 2.88574 10.6035C3.98926 11.6289 5.6543 12.4541 7.88086 13.0791C9.76562 13.6064 11.001 14.0947 11.5869 14.5439C12.1826 14.9834 12.4805 15.5889 12.4805 16.3604C12.4805 17.1514 12.1875 17.7861 11.6016 18.2646C11.0156 18.7334 10.1758 18.9678 9.08203 18.9678C7.96875 18.9678 7.09961 18.7139 6.47461 18.2061C5.84961 17.6982 5.54199 16.9268 5.55176 15.8916V15.3936H0.922852V16.082ZM20.9637 14.8516C20.9637 17.1465 21.6619 18.9824 23.0584 20.3594C24.4549 21.7266 26.3934 22.4102 28.8738 22.4102C30.573 22.4102 31.9842 22.0928 33.1072 21.458C34.24 20.8232 35.0457 19.9883 35.5242 18.9531L32.0379 17.2979C31.7156 17.7959 31.2859 18.2207 30.7488 18.5723C30.2117 18.9238 29.5623 19.0996 28.8006 19.0996C27.7361 19.0996 26.9256 18.7383 26.3689 18.0156C25.8221 17.2832 25.5486 16.2822 25.5486 15.0127V14.0312C25.5486 12.8594 25.8025 11.9121 26.3104 11.1895C26.8279 10.457 27.5799 10.0908 28.5662 10.0908C29.4354 10.0908 30.0945 10.3496 30.5438 10.8672C31.0027 11.3848 31.2322 12.0195 31.2322 12.7715V13.0205H23.8201V15.6426H35.7293V14.1631C35.7293 11.8877 35.0994 10.1006 33.8396 8.80176C32.5896 7.50293 30.8367 6.85352 28.5809 6.85352C26.325 6.85352 24.4891 7.54199 23.073 8.91895C21.6668 10.2861 20.9637 12.1074 20.9637 14.3828V14.8516ZM38.0748 7.27832L43.7291 22H47.9918L53.6168 7.27832H49.4713L46.5123 15.6719C46.4049 15.9941 46.317 16.2969 46.2486 16.5801C46.1803 16.8535 46.1266 17.1074 46.0875 17.3418H46.0143C45.9654 17.1074 45.9068 16.8535 45.8385 16.5801C45.7701 16.2969 45.6822 15.9941 45.5748 15.6719L42.6451 7.27832H38.0748ZM56.2699 14.6611H64.9711V10.8525H56.2699V14.6611ZM69.6457 22H74.3918V14.8223L86.4621 0.671875H81.423L74.3918 9.18262V0.671875H69.6457V22ZM81.8186 22H87.3996L77.8488 8.25977L74.8898 11.7314L81.8186 22ZM89.7305 17.708C89.7305 19.2119 90.2041 20.3447 91.1514 21.1064C92.1084 21.8682 93.334 22.249 94.8281 22.249C96.0781 22.249 97.1182 22.0293 97.9482 21.5898C98.7881 21.1406 99.3594 20.6377 99.6621 20.0811C99.7012 20.4326 99.7646 20.7842 99.8525 21.1357C99.9404 21.4775 100.048 21.7656 100.175 22H104.701V21.7803C104.506 21.3896 104.354 20.9258 104.247 20.3887C104.14 19.8418 104.086 19.2705 104.086 18.6748V12.0244C104.086 10.2471 103.52 8.94824 102.387 8.12793C101.254 7.29785 99.6328 6.88281 97.5234 6.88281C95.4336 6.88281 93.7539 7.3125 92.4844 8.17188C91.2148 9.03125 90.5801 10.1396 90.5801 11.4971V11.7607L94.9746 11.7754V11.5264C94.9746 11.0088 95.1553 10.5889 95.5166 10.2666C95.8779 9.93457 96.4639 9.76855 97.2744 9.76855C98.0947 9.76855 98.6709 9.96387 99.0029 10.3545C99.335 10.7451 99.501 11.2725 99.501 11.9365V12.8008H96.3369C94.4033 12.8008 92.8164 13.2207 91.5762 14.0605C90.3457 14.9004 89.7305 16.1162 89.7305 17.708ZM94.3008 17.3271C94.3008 16.6631 94.5449 16.1699 95.0332 15.8477C95.5312 15.5254 96.293 15.3643 97.3184 15.3643H99.501V16.668C99.501 17.4004 99.2129 18.0352 98.6367 18.5723C98.0605 19.1094 97.3623 19.3779 96.542 19.3779C95.7803 19.3779 95.2139 19.1973 94.8428 18.8359C94.4814 18.4648 94.3008 17.9619 94.3008 17.3271ZM108.629 17.3125V17.5176C108.648 19.0801 109.259 20.2861 110.46 21.1357C111.661 21.9854 113.36 22.4102 115.557 22.4102C117.784 22.4102 119.478 21.9854 120.64 21.1357C121.803 20.2861 122.384 19.0801 122.384 17.5176C122.384 16.248 121.959 15.252 121.109 14.5293C120.26 13.8066 118.917 13.2695 117.081 12.918C115.557 12.6152 114.571 12.3418 114.122 12.0977C113.673 11.8535 113.448 11.5312 113.448 11.1309C113.448 10.7109 113.609 10.3838 113.931 10.1494C114.254 9.90527 114.776 9.7832 115.499 9.7832C116.261 9.7832 116.827 9.93457 117.198 10.2373C117.579 10.5303 117.769 10.9648 117.769 11.541V11.8047H122.076V11.585C122.076 10.1006 121.49 8.93848 120.318 8.09863C119.146 7.25879 117.559 6.83887 115.557 6.83887C113.536 6.83887 111.944 7.24414 110.782 8.05469C109.62 8.86523 109.039 9.99316 109.039 11.4385C109.039 12.6689 109.449 13.6602 110.269 14.4121C111.099 15.1641 112.418 15.7207 114.224 16.082C115.728 16.3848 116.705 16.6582 117.154 16.9023C117.603 17.1367 117.828 17.498 117.828 17.9863C117.828 18.4648 117.633 18.8408 117.242 19.1143C116.851 19.3877 116.27 19.5244 115.499 19.5244C114.718 19.5244 114.093 19.3779 113.624 19.085C113.165 18.7822 112.935 18.2842 112.935 17.5908V17.3418L108.629 17.3125ZM126.165 17.3125V17.5176C126.184 19.0801 126.795 20.2861 127.996 21.1357C129.197 21.9854 130.896 22.4102 133.093 22.4102C135.32 22.4102 137.014 21.9854 138.176 21.1357C139.338 20.2861 139.92 19.0801 139.92 17.5176C139.92 16.248 139.495 15.252 138.645 14.5293C137.796 13.8066 136.453 13.2695 134.617 12.918C133.093 12.6152 132.107 12.3418 131.658 12.0977C131.209 11.8535 130.984 11.5312 130.984 11.1309C130.984 10.7109 131.145 10.3838 131.467 10.1494C131.79 9.90527 132.312 9.7832 133.035 9.7832C133.796 9.7832 134.363 9.93457 134.734 10.2373C135.115 10.5303 135.305 10.9648 135.305 11.541V11.8047H139.612V11.585C139.612 10.1006 139.026 8.93848 137.854 8.09863C136.682 7.25879 135.095 6.83887 133.093 6.83887C131.072 6.83887 129.48 7.24414 128.318 8.05469C127.156 8.86523 126.575 9.99316 126.575 11.4385C126.575 12.6689 126.985 13.6602 127.805 14.4121C128.635 15.1641 129.954 15.7207 131.76 16.082C133.264 16.3848 134.241 16.6582 134.69 16.9023C135.139 17.1367 135.364 17.498 135.364 17.9863C135.364 18.4648 135.169 18.8408 134.778 19.1143C134.387 19.3877 133.806 19.5244 133.035 19.5244C132.254 19.5244 131.629 19.3779 131.16 19.085C130.701 18.7822 130.471 18.2842 130.471 17.5908V17.3418L126.165 17.3125ZM143.745 17.708C143.745 19.2119 144.218 20.3447 145.165 21.1064C146.122 21.8682 147.348 22.249 148.842 22.249C150.092 22.249 151.132 22.0293 151.962 21.5898C152.802 21.1406 153.373 20.6377 153.676 20.0811C153.715 20.4326 153.779 20.7842 153.867 21.1357C153.954 21.4775 154.062 21.7656 154.189 22H158.715V21.7803C158.52 21.3896 158.369 20.9258 158.261 20.3887C158.154 19.8418 158.1 19.2705 158.1 18.6748V12.0244C158.1 10.2471 157.534 8.94824 156.401 8.12793C155.268 7.29785 153.647 6.88281 151.538 6.88281C149.448 6.88281 147.768 7.3125 146.498 8.17188C145.229 9.03125 144.594 10.1396 144.594 11.4971V11.7607L148.989 11.7754V11.5264C148.989 11.0088 149.169 10.5889 149.531 10.2666C149.892 9.93457 150.478 9.76855 151.288 9.76855C152.109 9.76855 152.685 9.96387 153.017 10.3545C153.349 10.7451 153.515 11.2725 153.515 11.9365V12.8008H150.351C148.417 12.8008 146.83 13.2207 145.59 14.0605C144.36 14.9004 143.745 16.1162 143.745 17.708ZM148.315 17.3271C148.315 16.6631 148.559 16.1699 149.047 15.8477C149.545 15.5254 150.307 15.3643 151.332 15.3643H153.515V16.668C153.515 17.4004 153.227 18.0352 152.651 18.5723C152.075 19.1094 151.376 19.3779 150.556 19.3779C149.794 19.3779 149.228 19.1973 148.857 18.8359C148.496 18.4648 148.315 17.9619 148.315 17.3271Z" fill="white"/>
</svg>
