<?xml version="1.0" encoding="utf-8"?><svg fill="none" stroke="none" viewBox="0 0 682.667 682.667" xmlns="http://www.w3.org/2000/svg" xmlns:xlink="http://www.w3.org/1999/xlink"><style>:root>svg{display:none}:root>svg:target{display:block}</style><svg fill="currentColor" viewBox="0 0 35 71" id="arrow" xmlns="http://www.w3.org/2000/svg"><path d="M17.5 71V3m0 0L33 18.5M17.5 3 2 18.5"/></svg><svg fill="currentColor" viewBox="0 0 36 26" id="burger-menu" xmlns="http://www.w3.org/2000/svg"><path d="M.5 25.5h35v-5H.5v5Zm0-25v5h35v-5H.5Zm0 15h35v-5H.5v5Z"/></svg><svg fill="none" viewBox="0 0 30 24" id="card" xmlns="http://www.w3.org/2000/svg"><path d="M0 4.5A3.75 3.75 0 0 1 3.75.75h22.5A3.75 3.75 0 0 1 30 4.5v15a3.75 3.75 0 0 1-3.75 3.75H3.75A3.75 3.75 0 0 1 0 19.5v-15Zm3.75-1.875A1.875 1.875 0 0 0 1.875 4.5v1.875h26.25V4.5a1.875 1.875 0 0 0-1.875-1.875H3.75Zm24.375 7.5H1.875V19.5a1.875 1.875 0 0 0 1.875 1.875h22.5a1.875 1.875 0 0 0 1.875-1.875v-9.375Z" fill="currentColor"/><path d="M3.75 15.75a1.875 1.875 0 0 1 1.875-1.875H7.5a1.875 1.875 0 0 1 1.875 1.875v1.875A1.875 1.875 0 0 1 7.5 19.5H5.625a1.875 1.875 0 0 1-1.875-1.875V15.75Z" fill="currentColor"/></svg><svg fill="none" viewBox="0 0 104 120" id="cash" xmlns="http://www.w3.org/2000/svg"><path fill-rule="evenodd" clip-rule="evenodd" d="M9.764.151C8.463.51 8.5.171 8.5 11.424v10.192H6.667c-1.009 0-2.188.108-2.622.24-.997.305-2.455 1.605-3.03 2.702l-.444.846v90.706l.444.846c.6 1.146 1.574 2.101 2.665 2.616.904.427.974.428 26.098.428 20.897 0 25.33-.048 25.995-.283 1.224-.43 2.496-1.592 3.034-2.772l.475-1.04L59.284 92l.002-23.905h19.838c22.493 0 21.027.106 22.75-1.65 1.644-1.678 1.596-1.134 1.531-17.314-.054-13.233-.08-14.158-.431-14.976-.468-1.091-2.042-2.557-3.092-2.877-.592-.181-5.899-.244-20.677-.244h-19.88l-.07-2.918c-.065-2.736-.103-2.976-.611-3.858-.608-1.054-1.673-1.968-2.752-2.362-.396-.144-1.556-.267-2.578-.271l-1.856-.01-.003-9.981c-.002-7.52-.064-10.105-.252-10.483-.136-.275-.534-.67-.884-.88-.572-.34-.705-.349-1.313-.09-.373.159-1.503.904-2.512 1.657L44.66 3.206l-2.071-1.511c-1.14-.831-2.23-1.57-2.425-1.641-.542-.2-1.264.164-3.39 1.712l-1.953 1.422-2.133-1.57C31.172.502 30.383.048 29.958.048c-.57 0-1.235.404-3.919 2.383l-1.029.759-1.966-1.453C20.746.039 20.337-.153 19.616.127 19.2.286 17 1.796 15.412 3.011c-.127.098-1.015-.423-2.176-1.275C10.956.063 10.63-.086 9.764.15Zm12.441 5.596c2.643 1.946 2.92 1.971 4.993.458.812-.593 1.76-1.283 2.106-1.534l.63-.455 2.08 1.533c2.417 1.781 3.008 1.913 4.308.96a622.44 622.44 0 0 1 2.103-1.527l1.319-.955 2.09 1.528c2.56 1.873 2.979 1.935 4.673.697l1.137-.83v23.774h-35.53V17.508c0-9.452.051-11.857.25-11.74.139.08.67.454 1.182.83 1.448 1.066 1.939.972 4.414-.839 1.146-.838 2.1-1.529 2.121-1.535.021-.007.977.678 2.124 1.523Zm-2.865 5.78c-1.134.208-1.825 1.479-1.388 2.554.487 1.2.36 1.187 12.133 1.187H40.85l.586-.598c1.067-1.088.67-2.67-.774-3.078-.73-.207-20.229-.267-21.322-.066Zm-.541 8.658c-.609.25-1.13 1.34-.966 2.016.072.297.321.748.553 1.001l.422.461h22.231l.492-.542c.7-.77.663-1.772-.095-2.545l-.586-.599-10.805.013c-5.943.008-11.004.095-11.247.195ZM8.5 27.323v2.021l-1.02.1c-1.327.13-1.881.665-1.881 1.818 0 .664.116.942.558 1.33l.56.49h46.492l.53-.54c1.201-1.225.29-3.146-1.494-3.146h-.787V25.301h1.615c1.466 0 1.662.049 2.13.525l.514.525-.124 44.573-.125 44.571-.421.359c-.397.337-1.896.358-25.19.358-24.502 0-24.774-.004-25.17-.409-.4-.408-.402-.683-.402-45.015 0-42.225.019-44.62.351-44.917.528-.468.822-.536 2.409-.554l1.455-.016v2.022Zm90.67 7.842c.43.412.464.61.464 2.662v2.217H59.286V34.72h39.419l.465.445Zm-88.017 1.782c-1.236.439-1.883 1.001-2.622 2.277l-.533.922V61.44l.549.951c.702 1.22 1.501 1.898 2.721 2.311.872.296 2.867.324 19.026.275l18.052-.056.822-.449c.452-.246 1.119-.792 1.48-1.213 1.356-1.575 1.311-1.153 1.311-12.466 0-11.313.045-10.891-1.31-12.466-.362-.42-1.029-.967-1.48-1.213l-.823-.449-18.066-.047c-17.088-.045-18.124-.027-19.127.329Zm36.778 3.828c.277.283.315 1.476.315 10.018 0 8.542-.038 9.735-.315 10.019-.282.287-2.196.321-18.055.321h-17.74l-.312-.455c-.272-.396-.313-1.681-.313-9.885 0-8.203.04-9.49.313-9.885l.312-.455h17.74c15.859 0 17.772.034 18.055.322Zm51.703 6.128v2.969H59.286V43.934h40.348v2.969Zm0 11.603c0 4.318-.042 4.997-.332 5.324-.318.358-1.207.374-20.174.374H59.286V53.557h40.348v4.95ZM11.386 69.464c-.235.047-.641.319-.904.603-.463.502-.478.63-.54 4.545-.042 2.55.016 4.309.157 4.794.37 1.271.803 1.384 5.332 1.384h3.94l.587-.599.587-.598V75.16c0-2.783-.081-4.585-.217-4.845-.43-.82-1.344-.995-5.046-.965-1.908.016-3.662.067-3.896.113Zm14.653 0c-.234.047-.64.319-.903.603-.463.502-.478.63-.541 4.545-.041 2.55.017 4.309.158 4.794.37 1.271.802 1.384 5.332 1.384h3.94l.586-.599.587-.598V75.16c0-2.783-.08-4.585-.217-4.845-.43-.82-1.344-.995-5.046-.965-1.908.016-3.661.067-3.896.113Zm13.829.08c-1.18.362-1.287.872-1.218 5.826.08 5.81-.408 5.317 5.28 5.317 5.684 0 5.2.483 5.28-5.258.04-2.791-.015-4.517-.156-4.863-.423-1.044-.804-1.137-4.823-1.18-2.042-.023-4.006.048-4.363.158Zm-22.98 5.564-.057 1.894-1.556.06-1.556.06V73.213H16.947l-.057 1.894Zm14.654 0-.058 1.894-1.555.06-1.556.06V73.213H31.6l-.058 1.894Zm13.894.05v1.946h-3.011v-3.89h3.011v1.945Zm-34.867 10.22-.563.494-.062 4.247c-.043 2.962.01 4.425.178 4.838.46 1.133.703 1.19 5.163 1.19h4.086l.587-.6.587-.598V90.62c0-4.38-.078-4.918-.786-5.473-.226-.177-1.524-.251-4.473-.256-4.105-.006-4.16 0-4.717.487Zm14.654 0-.563.494-.063 4.247c-.043 2.962.011 4.425.179 4.838.46 1.133.702 1.19 5.163 1.19h4.086l.586-.6.587-.598V90.62c0-4.38-.077-4.918-.785-5.473-.227-.177-1.524-.251-4.473-.256-4.105-.006-4.16 0-4.717.487Zm13.974.105-.586.599v8.867l.586.599.587.598h4.12c4.064 0 4.126-.006 4.682-.494l.563-.493.061-4.528.062-4.527-.598-.61-.598-.61h-8.292l-.587.6Zm-22.266 5.032v1.946H13.72V88.57H16.93v1.945Zm14.654 0v1.946h-3.212V88.57h3.212v1.945Zm13.85 0v1.946h-3.01V88.57h3.011v1.945ZM10.613 100.73c-.667.681-.74 1.319-.67 5.803l.064 3.938.556.567.556.567 3.341.069c3.995.083 4.968-.036 5.609-.69.473-.483.476-.521.476-5.016v-4.53l-.586-.598-.587-.599h-4.14c-4.096 0-4.144.005-4.619.489Zm14.654 0c-.667.681-.741 1.319-.67 5.803l.064 3.938.556.567.556.567 3.537.069c4.053.078 4.745-.01 5.41-.687.476-.487.48-.517.48-5.019v-4.53l-.588-.598-.586-.599h-4.14c-4.096 0-4.145.005-4.619.489Zm14.008.005-.563.494-.061 4.507-.06 4.507.595.681.597.681h8.296l.597-.681.596-.681-.06-4.507-.062-4.507-.563-.494c-.555-.487-.62-.494-4.656-.494s-4.1.007-4.656.494Zm-22.343 5.137v1.945H13.72v-3.89H16.93v1.945Zm14.654 0v1.945h-3.212v-3.89h3.212v1.945Zm13.85 0v1.945h-3.01v-3.89h3.011v1.945Z" fill="url(#ada)"/><defs><linearGradient id="ada" x1=".571" y1="0" x2="130.649" y2="52.306" gradientUnits="userSpaceOnUse"><stop stop-color="#208275"/><stop offset="1" stop-color="#2DD4BF"/></linearGradient></defs></svg><svg fill="currentColor" viewBox="0 0 30 31" id="clock" xmlns="http://www.w3.org/2000/svg"><path d="M15 3C8.107 3 2.5 8.607 2.5 15.5 2.5 22.392 8.107 28 15 28c6.892 0 12.5-5.608 12.5-12.5C27.5 8.607 21.892 3 15 3Zm0 22.5c-5.514 0-10-4.486-10-10s4.486-10 10-10 10 4.486 10 10-4.486 10-10 10Z"/><path d="M16.25 9.25h-2.5v6.767l4.116 4.117 1.768-1.768-3.384-3.383V9.25Z"/></svg><svg fill="currentColor" viewBox="0 0 32 32" id="close" xmlns="http://www.w3.org/2000/svg"><path d="M18.53 16 31.346.722a.388.388 0 0 0-.298-.64h-3.897c-.23 0-.449.103-.6.278L15.98 12.963 5.41.36a.78.78 0 0 0-.601-.278H.912a.388.388 0 0 0-.298.64L13.432 16 .614 31.278a.388.388 0 0 0 .298.64h3.897c.229 0 .449-.103.6-.278L15.98 19.037 26.552 31.64a.78.78 0 0 0 .6.278h3.897a.388.388 0 0 0 .298-.64L18.529 16Z"/></svg><svg fill="none" viewBox="0 0 32 32" id="coins" xmlns="http://www.w3.org/2000/svg"><path d="M21 4c-1.793 0-3.418.336-4.688.969C15.043 5.602 14 6.633 14 8v4c0 .129.043.254.063.375A12.176 12.176 0 0 0 11 12c-1.793 0-3.418.336-4.688.969C5.043 13.602 4 14.633 4 16v8c0 1.367 1.043 2.398 2.313 3.031C7.582 27.664 9.207 28 11 28c1.793 0 3.418-.336 4.688-.969C16.956 26.398 18 25.367 18 24v-.406c.978.264 1.987.4 3 .406 1.793 0 3.418-.336 4.688-.969C26.956 22.398 28 21.367 28 20V8c0-1.367-1.043-2.398-2.313-3.031C24.419 4.336 22.794 4 21 4Zm0 2c1.523 0 2.879.328 3.781.781C25.684 7.234 26 7.711 26 8c0 .29-.316.766-1.219 1.219C23.88 9.672 22.523 10 21 10c-1.523 0-2.879-.328-3.781-.781C16.316 8.766 16 8.289 16 8c0-.29.316-.766 1.219-1.219C18.12 6.328 19.477 6 21 6Zm-5 4.844c.105.058.203.133.313.187 1.269.633 2.894.969 4.687.969 1.793 0 3.418-.336 4.688-.969.109-.054.207-.129.312-.187V12c0 .29-.316.766-1.219 1.219-.902.453-2.258.781-3.781.781-1.523 0-2.879-.328-3.781-.781C16.316 12.766 16 12.289 16 12v-1.156ZM11 14c1.523 0 2.879.328 3.781.781.903.453 1.219.93 1.219 1.219 0 .29-.316.766-1.219 1.219-.902.453-2.258.781-3.781.781-1.523 0-2.879-.328-3.781-.781C6.316 16.766 6 16.289 6 16c0-.29.316-.766 1.219-1.219C8.12 14.328 9.477 14 11 14Zm15 .844V16c0 .29-.316.766-1.219 1.219-.902.453-2.258.781-3.781.781a9.5 9.5 0 0 1-3-.469V16c0-.129-.043-.254-.063-.375.93.242 1.961.375 3.063.375 1.793 0 3.418-.336 4.688-.969.109-.054.207-.129.312-.187Zm-20 4c.105.058.203.133.313.187C7.582 19.664 9.207 20 11 20c1.793 0 3.418-.336 4.688-.969.109-.054.207-.129.312-.187V20c0 .29-.316.766-1.219 1.219-.902.453-2.258.781-3.781.781-1.523 0-2.879-.328-3.781-.781C6.316 20.766 6 20.289 6 20v-1.156Zm20 0V20c0 .29-.316.766-1.219 1.219-.902.453-2.258.781-3.781.781-1.137 0-2.164-.16-3-.438v-1.937c.918.242 1.918.375 3 .375 1.793 0 3.418-.336 4.688-.969.109-.054.207-.129.312-.187Zm-20 4c.105.058.203.133.313.187C7.582 23.664 9.207 24 11 24c1.793 0 3.418-.336 4.688-.969.109-.054.207-.129.312-.187V24c0 .29-.316.766-1.219 1.219-.902.453-2.258.781-3.781.781-1.523 0-2.879-.328-3.781-.781C6.316 24.766 6 24.289 6 24v-1.156Z" fill="currentColor"/></svg><svg version="1.0" viewBox="0 0 512 512" id="delivery" xmlns="http://www.w3.org/2000/svg"><g fill="currentColor"><path d="M112.5 61.6c-1.1.3-5.6 1.2-10 2-37.7 7.2-70.8 33.1-88.1 68.9-16.9 35-16.7 75.4.4 110.4 5.1 10.2 12.2 20.9 18.8 28l5.3 5.8.3 80.4c.3 89.3-.1 84.3 7.1 90.6 2 1.8 5.3 3.7 7.4 4.2 2.1.6 12.9 1.1 24 1.1H98l.6-2.7c5.6-25.7 22.9-45.8 46.2-53.8 11.1-3.9 27.5-4.6 39-1.7 24.1 6.1 42.2 23.2 50.1 47.1 1.2 3.6 2.1 7.5 2.1 8.8v2.3h20.8c11.4 0 22.4-.5 24.4-1 5-1.4 9.7-5.5 11.9-10.5 1.8-3.8 1.9-9.8 1.9-126.3 0-107.8-.2-122.7-1.5-125.9-3.9-9.2-9-11.6-26.2-12.1-7.3-.2-13.3-.6-13.3-.9 0-.2-.5-3.7-1.1-7.6C245 116.6 206 75.1 154 63.5c-7.3-1.6-37-3-41.5-1.9zm28.8 27.5c31.8 4.7 58.7 23.4 73.7 51.2 16.6 30.8 15.9 65.4-2.1 97.5-6.1 10.7-22.5 27.3-33.4 33.6-23 13.3-46.5 17.5-70.8 12.5-20.4-4.1-35.5-12.4-50.7-27.8C43.1 241 35.1 226.2 31 206c-8.8-43.2 13.2-87.5 53.5-107.8 16.6-8.3 38.5-11.8 56.8-9.1z"/><path d="M123.5 111.5c-1.9 1.8-2.5 3.5-2.6 7.2 0 2.6-.6 15.5-1.2 28.5-1.2 23.6-1.3 23.7-3.9 26.1-11.8 10.9-5.6 29.7 10.6 32.1 3.5.6 6.6 2.8 20.1 14.7 8.8 7.7 17 14.5 18.1 15.1 4.4 2.1 12.4-4.4 12.4-9.9 0-1.1-6.7-9.8-15-19.4-8.2-9.6-15.2-18.4-15.5-19.7-.3-1.2-.7-3.4-1-4.8-.3-1.4-2.3-4.4-4.5-6.7l-3.8-4.2-1.1-24c-.6-13.2-1.1-25.9-1.1-28.3 0-3.2-.6-4.9-2.5-6.7-3.1-3.2-5.9-3.2-9 0zM326.5 218.9c-5 2.3-9.1 7-10.5 12.1-.7 2.6-.9 37.2-.8 105.7l.3 101.8 2.7 4.5c2.7 4.7 7.8 8.3 13.3 9.4 3.1.7 3.1.7 4.4-5.6 4-19.4 18.7-37.9 37.4-46.9 11.3-5.5 20.4-7.2 34-6.7 12.5.5 21.5 3.1 31.5 9 7.3 4.3 20.8 17.7 25 25 3.1 5.2 7.1 16 8.7 23.2l.6 2.8 12.2-.3c11.2-.4 12.6-.6 16.9-3.1 3.5-2.1 5.3-4.1 7.3-8.2l2.6-5.3-.3-54.9-.3-54.9-2.8-7.9c-4.4-12.6-8.6-19-34.1-53.1-26.7-35.7-32.8-42.7-40.1-46.1l-5-2.4H380c-45.9 0-49.8.2-53.5 1.9zm100.4 39.3c3.7 2.7 45.8 60.8 49.6 68.5 4.4 9.1 9.2 8.3-50 8.3H374v-79h24.9c24.1 0 24.9.1 28 2.2zM160.5 418.1c-24 3.5-41.7 27.5-37.7 51.3 5.1 30.9 37.7 47.6 65.5 33.5 16.8-8.6 26.5-27.7 23.8-46.7-3.6-24.5-26.8-41.6-51.6-38.1z"/><path d="M399.5 417.7c-10.8 1.2-20 5.6-27.7 13.4-24.8 24.7-13.2 66.5 20.9 75.4 15.4 4 31.3-.4 42.8-12 17.7-17.6 17.8-45.9.3-63.5-9.5-9.4-23.7-14.7-36.3-13.3z"/></g></svg><svg fill="none" viewBox="0 0 80 54" id="email" xmlns="http://www.w3.org/2000/svg"><g clip-path="url(#aia)"><path d="M66.667 13.467 40 30.133 13.334 13.467V6.8L40 23.467 66.667 6.8m0-6.667H13.334A6.644 6.644 0 0 0 6.667 6.8v40a6.667 6.667 0 0 0 6.667 6.667h53.333a6.666 6.666 0 0 0 6.667-6.667v-40A6.667 6.667 0 0 0 66.667.133Z" fill="#fff"/></g><defs><clipPath id="aia"><path fill="#fff" d="M0 0h80v53.6H0z"/></clipPath></defs></svg><svg fill="none" viewBox="0 0 32 32" id="fast-arrow" xmlns="http://www.w3.org/2000/svg"><path d="m4 7 8.842 8.5L4 24M19.158 7 28 15.5 19.158 24" stroke="currentColor" stroke-width="2.5" stroke-linecap="round" stroke-linejoin="round"/></svg><svg fill="none" viewBox="0 0 120 120" id="hard-drive" xmlns="http://www.w3.org/2000/svg"><path fill-rule="evenodd" clip-rule="evenodd" d="M93.472.115C84.278 1.47 76.942 8.61 75.24 17.86l-.356 1.933-24.753.063-24.753.063-1.67.872c-1.893.988-3.594 2.642-4.459 4.335-.33.646-4.027 13.636-8.715 30.625-4.479 16.227-8.44 30.24-8.801 31.139-1.526 3.787-2.07 8.615-1.528 13.539 1.063 9.648 7.462 17.102 16.432 19.142 1.79.407 3.999.429 43.158.429 32.726 0 41.595-.063 42.826-.302 7.726-1.502 13.773-6.917 16.214-14.52 1.683-5.24 1.528-12.527-.375-17.64-.508-1.365-12.347-43.725-12.66-45.299-.047-.237.547-.79 1.703-1.588 4.217-2.908 7.487-7.792 8.81-13.158.633-2.568.671-7.167.083-9.917-1.868-8.722-8.139-15.294-16.323-17.109-1.98-.439-4.938-.596-6.6-.352Zm6.063 6.326c2.924.778 4.803 1.925 7.094 4.334 2.848 2.993 4.018 5.521 4.529 9.789.567 4.74-1.089 9.572-4.525 13.203-1.757 1.857-3.597 3.036-6.231 3.994-1.564.569-2.104.645-4.549.648-2.534.003-2.94-.06-4.717-.72-4.28-1.592-7.085-4.194-9.135-8.476-1.388-2.9-1.858-7.457-1.115-10.817 1.236-5.583 5.812-10.446 11.246-11.95 2.19-.606 5.138-.608 7.403-.005Zm-4.125 4.62c-.858.317-.888.623-.888 9.02 0 4.488-.076 8.159-.169 8.159-.093 0-1.714-1.635-3.603-3.633-3.619-3.828-4.137-4.163-4.958-3.204-.83.969-.573 1.363 4.126 6.298 6.281 6.599 5.773 6.6 12.093-.008 3.749-3.92 4.272-4.557 4.272-5.205 0-.418-.177-.907-.406-1.126-.885-.846-1.331-.551-4.92 3.245-1.889 1.998-3.51 3.633-3.603 3.633-.093 0-.17-3.732-.17-8.292 0-6.352-.064-8.347-.276-8.526-.395-.334-1.109-.506-1.498-.361ZM75.217 26.235c0 .85 1.064 4.26 1.832 5.872 3.09 6.489 9.113 11.085 15.848 12.097 1.62.243 5.646.15 6.95-.16l.555-.132 4.414 16.012c2.427 8.807 4.464 16.155 4.525 16.329.088.247-.034.236-.558-.05-1.193-.651-3.499-1.497-5.296-1.942-1.674-.414-3.65-.434-43.692-.434H17.857l-2.11.617c-1.161.339-2.79.942-3.619 1.339-1.24.594-1.486.65-1.387.32.067-.22 3.017-10.895 6.556-23.722 3.54-12.827 6.606-23.727 6.814-24.223.412-.982 1.454-1.945 2.441-2.258.344-.109 11.434-.207 24.645-.218l24.02-.02v.573Zm27.824 54.03c3.029.82 5.733 2.628 7.832 5.239 1.024 1.274 1.51 2.222 2.546 4.964.672 1.78.713 2.067.803 5.681.109 4.403-.176 6.256-1.368 8.875-1.826 4.01-5.125 6.989-9.234 8.336l-1.664.546H17.857l-1.553-.56c-4.253-1.533-7.082-4.068-8.979-8.045-1.326-2.781-1.624-4.607-1.512-9.267.087-3.59.143-4.035.657-5.214.31-.71.734-1.788.943-2.396 1.158-3.376 5.397-7.013 9.494-8.147 1.561-.433 3.011-.448 43.02-.46 40.502-.013 41.44-.003 43.114.449Zm-77.3 8.586c-4.96 1.408-7.293 7.246-4.839 12.11.815 1.614 2.021 2.8 3.723 3.658 1.041.525 1.513.614 3.217.61 1.684-.005 2.189-.102 3.218-.616 1.725-.862 2.908-2.039 3.776-3.756.645-1.275.762-1.761.838-3.475.072-1.62 0-2.24-.385-3.317-.958-2.685-2.866-4.517-5.443-5.226-1.605-.442-2.516-.439-4.104.012Zm46.863 1.396c-.929.687-.508 2.262.687 2.573.266.069 5.947.095 12.625.059 10.966-.06 12.176-.105 12.51-.457.481-.509.469-1.5-.027-2.079-.384-.448-.747-.461-12.849-.461-10.912 0-12.514.045-12.946.365Zm-42.469 1.886c3.982 2.096 3.66 8.258-.518 9.937-2.29.921-5.207-.27-6.314-2.578-2.268-4.73 2.359-9.714 6.832-7.36Zm29.621 8.925c-1.019.215-1.362 1.56-.62 2.426.387.452.785.461 19.631.461 18.847 0 19.245-.009 19.632-.461.496-.579.508-1.57.026-2.08-.337-.356-1.974-.391-19.277-.418-10.4-.016-19.126.016-19.392.072Z" fill="url(#aka)"/><defs><linearGradient id="aka" x1="0" y1="0" x2="144.495" y2="67.787" gradientUnits="userSpaceOnUse"><stop stop-color="#208275"/><stop offset="1" stop-color="#2DD4BF"/></linearGradient></defs></svg><svg fill="none" viewBox="0 0 121 120" id="learning" xmlns="http://www.w3.org/2000/svg"><path fill-rule="evenodd" clip-rule="evenodd" d="M57.145.207c-5.847.94-11.161 4.208-14.568 8.958l-.948 1.322-16.205.004c-9.623.003-16.82.09-17.718.216-2.938.41-5.19 2.018-6.437 4.595L.58 16.723l-.064 41.12C.47 87.955.519 99.3.699 100.224c.328 1.683 1.027 2.966 2.284 4.189 1.322 1.287 2.902 2.042 4.765 2.278.808.102 17.915.188 38.015.192l36.545.007v5.518c0 4.668.055 5.629.353 6.245.438.903 1.274 1.344 2.543 1.344 1.072 0 .78.208 6.579-4.651 1.457-1.221 2.732-2.219 2.833-2.219.101 0 1.377.998 2.834 2.219 5.874 4.921 5.487 4.651 6.679 4.651.922 0 1.188-.102 1.881-.723l.806-.723.064-5.831.063-5.83 2.42-.007c4.784-.014 6.687-.556 8.678-2.474.596-.575 1.332-1.598 1.712-2.382l.666-1.374.064-41.119c.047-30.112-.002-41.457-.182-42.38-.682-3.5-3.418-6.01-7.049-6.468-.808-.102-8.768-.188-17.687-.192l-16.218-.007-.8-1.178c-2.795-4.123-7.7-7.48-12.827-8.782-2.142-.543-6.236-.696-8.575-.32Zm5.73 5.22C70.578 6.65 76.23 12.68 76.832 20.321c.25 3.158-.645 6.503-2.6 9.72-3.377 5.56-5.058 10.455-5.447 15.86l-.144 2.005H52.36l-.134-1.996c-.349-5.197-2.31-10.902-5.51-16.023-.997-1.596-1.837-3.622-2.216-5.341-.39-1.77-.326-5.398.124-7.083 1.567-5.861 6.404-10.5 12.205-11.704 2.836-.588 4.019-.653 6.046-.332ZM39.265 16.46c-.748 2.93-.69 6.87.15 10.095.64 2.453 1.148 3.582 3.127 6.952 2.836 4.832 4.349 9.829 4.357 14.395.004 2.077 1.409 4.197 3.29 4.966l.81.33.003 2.693c.001 1.603.122 3.133.298 3.781.702 2.58 2.6 4.858 5.02 6.025l1.373.661v25.77l-.81-.625c-1.494-1.152-2.96-1.917-5.023-2.622l-2.048-.7-21.974-.058-21.973-.06.057-35.14c.046-28.556.11-35.233.34-35.629.156-.267.594-.671.972-.897.665-.397 1.223-.411 16.42-.412h15.732l-.121.475Zm74.528-.047c.393.235.841.733.996 1.109.229.555.261 7.21.174 35.612l-.108 34.93-21.833.059-21.834.058-1.511.5c-1.995.66-3.843 1.576-5.236 2.595l-1.134.83V66.357l1.392-.67c2.365-1.14 4.13-3.152 4.908-5.59.299-.936.394-1.919.394-4.06v-2.825l.917-.4c1.087-.474 2.157-1.498 2.673-2.557.234-.481.439-1.66.553-3.194.35-4.717 1.618-8.959 3.758-12.58 2.823-4.776 3.52-6.41 4.09-9.593.472-2.642.359-6.577-.246-8.535-.108-.35.735-.37 15.609-.369 15.389.001 15.738.01 16.438.428ZM16.019 29.455c-2.05.754-2.498 3.225-.832 4.597l.65.536h15.772l.717-.703c.94-.919 1.15-1.964.612-3.04-.755-1.513-.944-1.544-9.253-1.525-4.038.008-7.487.07-7.666.135Zm73.244.2c-1.666.804-1.913 3.189-.454 4.39l.658.543h15.773l.721-.707c.397-.388.791-.977.876-1.307.234-.912-.323-2.221-1.187-2.789-.729-.48-.779-.483-8.205-.478-6.45.004-7.568.052-8.182.348Zm-73.37 13.267c-.81.345-1.523 1.193-1.711 2.036-.177.785.414 2.013 1.26 2.618.595.426.843.436 10.904.436 9.835 0 10.325-.018 10.993-.413 1.852-1.097 1.727-3.72-.22-4.625-.676-.314-1.848-.352-10.66-.345-7.796.007-10.041.07-10.566.293Zm67.934.089c-1.646.864-1.919 2.854-.572 4.173.55.539.942.711 1.872.822.647.077 5.372.11 10.5.073 9.049-.065 9.34-.08 9.932-.507.958-.691 1.458-1.756 1.275-2.711-.161-.84-.943-1.724-1.813-2.052-.275-.103-4.989-.188-10.476-.188-9.278 0-10.028.027-10.718.39ZM64.603 55.735c0 1.627-.102 2.57-.335 3.116-.678 1.589-1.928 2.425-3.66 2.45-1.416.02-2.615-.588-3.455-1.75-.622-.863-.65-1.003-.724-3.523l-.076-2.625h8.25v2.332Zm-48.71.505c-.81.346-1.523 1.194-1.711 2.036-.177.786.414 2.013 1.26 2.618.6.43.813.437 13.72.437 14.566 0 13.841.07 14.623-1.411.44-.832.306-2.335-.264-2.96-.924-1.016-.983-1.02-14.377-1.012-10.044.007-12.72.066-13.251.292Zm62.587.01c-1.41.606-1.987 2.506-1.162 3.83.86 1.381.6 1.357 14.335 1.357 6.825 0 12.719-.061 13.098-.135.378-.074.969-.41 1.314-.748a2.604 2.604 0 0 0-.279-3.996l-.697-.512-12.956-.047c-10.782-.04-13.072.003-13.653.252Zm-62.2 13.213c-2.484.589-2.88 3.895-.593 4.957.638.297 2.515.336 16.203.336 17.046 0 16.447.045 17.259-1.3.781-1.296.397-2.889-.896-3.719-.54-.346-1.664-.375-15.922-.407-8.437-.02-15.66.041-16.05.133Zm57.407-.053c-1.864.355-2.856 2.749-1.724 4.159.992 1.233.307 1.187 17.298 1.186 14.894 0 15.642-.02 16.277-.398.716-.428 1.386-1.58 1.385-2.382-.001-.666-.706-1.76-1.436-2.229-.558-.358-1.54-.383-15.935-.409-8.438-.015-15.577.018-15.865.073ZM48.624 93.577c1.704.26 4.112 1.374 5.433 2.512 1.214 1.046 2.427 2.75 2.99 4.199l.428 1.105H32.742c-26.993 0-25.481.069-26.345-1.205-.327-.481-.418-1.112-.489-3.389-.048-1.538-.03-2.94.039-3.118.112-.284 2.482-.321 20.7-.32 12.824.001 21.102.083 21.977.216Zm33.684 3.8v4.016H63.525l.428-1.105c1.279-3.293 4.44-5.923 7.94-6.605.908-.177 3.139-.291 5.935-.304l4.48-.02v4.017Zm19.166 5.126c.031 4.971-.001 9.038-.071 9.038-.07 0-1.116-.836-2.324-1.858-3.287-2.782-3.305-2.793-4.463-2.793s-1.175.011-4.463 2.793c-1.207 1.022-2.252 1.858-2.32 1.858-.179 0-.157-17.869.02-18.043.081-.08 3.167-.12 6.856-.088l6.709.055.056 9.038Zm13.655-6.282c0 4.793-.374 5.17-5.128 5.171l-3.077.001V93.36h8.205v2.86Z" fill="url(#ala)"/><defs><linearGradient id="ala" x1=".5" y1="0" x2="144.995" y2="67.787" gradientUnits="userSpaceOnUse"><stop stop-color="#208275"/><stop offset="1" stop-color="#2DD4BF"/></linearGradient></defs></svg><svg fill="none" viewBox="0 0 15 2" id="minus" xmlns="http://www.w3.org/2000/svg"><path d="M0 1h14.37" stroke="#000" stroke-width=".718"/></svg><svg fill="none" viewBox="0 0 121 120" id="operator" xmlns="http://www.w3.org/2000/svg"><path fill-rule="evenodd" clip-rule="evenodd" d="M47.695.117c-14.063.962-26.414 10.32-30.907 23.417-1.836 5.352-2.059 7.68-1.96 20.476.073 9.4.098 9.952.491 11.116.228.673.7 1.664 1.05 2.202 1.3 2.002 4.026 3.924 6.02 4.246.857.139.796.037 1.718 2.91.758 2.358 2.34 5.427 3.902 7.572 1.47 2.017 4.715 5.105 6.786 6.457l1.613 1.054v1.966l-5.704.857c-6.616.993-8.265 1.412-11.284 2.863-4.813 2.315-8.724 6.167-11.17 11.002-.5.992-2.022 5.47-4.264 12.559C2.069 114.873.5 119.878.5 119.935c0 .057 25.242.081 56.094.054l56.093-.049.057-1.906.057-1.905-2.934-.054-2.933-.055-.056-1.895-.057-1.895 4.719-.065c4.669-.065 4.729-.071 5.723-.588 1.192-.621 2.366-1.846 2.89-3.016.365-.815.376-1.517.325-19.816-.051-18.052-.072-19.004-.422-19.657-.638-1.187-2.112-2.52-3.255-2.941-1.026-.38-1.58-.39-21.06-.39H75.735l.489-1.617c.748-2.474.729-2.443 1.646-2.596 1.508-.252 3.439-1.378 4.767-2.78 1.437-1.518 2.255-3.093 2.573-4.959.161-.941.204-4.997.146-13.845-.078-11.947-.1-12.596-.508-14.345-1.418-6.09-4.88-11.04-10.071-14.4-1.408-.91-2.27-1.64-3.027-2.562-1.349-1.642-3.506-3.617-5.064-4.635-1.499-.98-4.386-2.381-5.976-2.901-2.848-.932-8.108-1.336-13.015-1Zm9.94 4.21c4.437.953 8.327 3.41 11.452 7.233.946 1.158 1.592 1.74 2.41 2.174 3.544 1.878 6.837 5.477 8.384 9.164 1.374 3.274 1.42 3.676 1.51 13.045.044 4.674.007 8.465-.083 8.426-.09-.04-.61-.304-1.156-.587-.546-.284-1.371-.628-1.835-.765l-.843-.25v-7.971h-1.546c-3.681 0-6.052-1.326-8.353-4.673-.48-.699-.972-1.204-1.169-1.202-3.08.039-9.193.491-11.747.869-10.195 1.507-18.974 4.953-28.019 11.001-2.234 1.493-2.93 1.86-3.861 2.03-.932.17-1.934.567-3.879 1.535-.223.111-.175-10.962.056-12.99C20.54 17.533 31.608 6.236 45.534 4.24c2.425-.347 2.902-.368 6.844-.299 2.511.045 4.266.173 5.257.386Zm7.652 29.313c1.427 2.034 4.296 3.947 6.944 4.63l1.374.355.058 1.074.058 1.073h-7.795c-7.62 0-7.813.01-8.588.425-.942.504-2.308 1.868-2.76 2.756-.177.349-.377 1.032-.445 1.519l-.123.885h-7.83l-.127-.93c-.157-1.154-1.092-2.803-1.96-3.457-1.539-1.159-2.131-1.287-5.989-1.291-2.194-.003-3.489-.075-3.373-.187.374-.36 4.8-2.435 6.934-3.25 7.261-2.773 14.262-4.163 22.044-4.378.975-.027 1.035.002 1.578.776ZM41.661 45.061c.617.61.75 1.395.667 3.94-.067 2.08-.071 2.095-.716 2.663l-.648.572H27.846l-.58-.573-.58-.573V45.74l.58-.573.58-.573H41.188l.474.468Zm31.342-.002c.594.586.774 1.715.665 4.17-.081 1.827-.102 1.898-.721 2.444l-.638.563H59.191l-.58-.573-.58-.573v-2.699c0-2.661.008-2.706.534-3.248l.533-.55h13.434l.471.466ZM22.72 52.24v5.492l-.618-.316c-3.56-1.819-4.354-6.598-1.532-9.228.541-.504 1.901-1.436 2.1-1.44.028 0 .05 2.471.05 5.492Zm55.846-4.934c.906.55 1.837 1.575 2.332 2.566.607 1.217.617 3.45.022 4.714-.49 1.042-1.66 2.24-2.701 2.767l-.744.377v-5.393c0-5.848-.03-5.71 1.09-5.03Zm-24.433 3.85c.265 1.903 1.604 3.624 3.493 4.487.853.39 1.276.416 7.696.472 4.206.036 7.073-.018 7.528-.142.403-.11.76-.174.793-.142.032.032-.03.988-.14 2.125-.217 2.27-.723 4.452-1.497 6.459l-.503 1.304-2.718.072c-2.34.063-2.834.134-3.555.51-1.308.682-2.173 1.54-2.775 2.75-.521 1.05-.558 1.293-.624 4.181l-.07 3.067-1.715.784c-1.99.909-3.772 1.452-6.278 1.912-2.118.39-6.307.303-8.534-.177-5.77-1.243-11.045-4.732-14.439-9.55-2.432-3.454-4.107-8.443-4.107-12.234V55.81l.864.182c.476.1 3.846.155 7.49.123 6.43-.057 6.653-.072 7.616-.51 1.73-.787 3.107-2.442 3.373-4.056.071-.431.165-.894.207-1.029.059-.185 1.02-.245 3.925-.245h3.848l.122.88ZM40.444 66.639c.254 1.83 1.506 3.497 3.268 4.352l1.127.547h5.258c4.927 0 5.313-.026 6.16-.413 1.918-.876 3.282-2.58 3.496-4.368l.12-1h-1.909c-1.85 0-1.912.014-2.028.471-.066.26-.343.678-.615.931-.491.456-.535.46-5.258.46h-4.762l-.479-.55c-.263-.303-.479-.721-.479-.931 0-.352-.151-.381-2.01-.381h-2.011l.122.882Zm75.464 3.416c.244.201.534.6.645.888.129.336.201 5.729.201 15.108v14.587H65.762l.053-15.008.053-15.008.557-.473.556-.473 24.242.007c23.366.006 24.258.02 24.685.372ZM42.659 82.113c.874.251 2.522.61 3.662.799 3.479.574 8.775.108 12.188-1.073.645-.223 1.203-.405 1.24-.405.038 0 .068.419.067.93-.005 2.392-3.086 5.35-6.484 6.224-1.511.389-4.914.38-6.48-.017-3.377-.855-6.476-3.888-6.476-6.338 0-.721.05-.822.347-.708.19.073 1.062.338 1.936.588Zm-1.064 16.748c2.49 7.376 4.502 13.434 4.474 13.463-.056.055-10.373-7.803-10.817-8.238-.218-.214.081-.936 1.748-4.226 1.105-2.182 1.983-3.992 1.949-4.023-.034-.03-1.817-.924-3.962-1.987l-3.9-1.933 1.19-2.939c.655-1.617 1.227-2.976 1.271-3.02.11-.11 2.886-.567 3.24-.533.19.017 1.756 4.395 4.807 13.436Zm-13.73-9.466c-.561 1.387-1.189 2.942-1.395 3.455l-.374.933 3.848 1.897 3.848 1.898-1.886 3.723c-1.71 3.375-1.855 3.745-1.551 3.964.184.133 3.412 2.608 7.172 5.499l6.837 5.256-9.663.051c-5.315.028-9.686.028-9.714 0-.028-.028.326-3.022.786-6.652.964-7.6 1.158-6.7-1.494-6.934l-1.516-.134-.121.76c-.067.418-.437 3.317-.822 6.443-.385 3.125-.744 5.881-.797 6.123l-.097.441h-7.535c-4.144 0-7.535-.052-7.535-.117 0-.064 1.172-3.834 2.605-8.377 2.763-8.762 3.491-10.53 5.32-12.905 2.51-3.26 5.797-5.636 9.633-6.963 1.539-.532 5.323-1.25 5.414-1.026.032.078-.401 1.277-.963 2.665Zm33.929 8.842-.007 8.377-3.588 2.744c-1.973 1.509-3.703 2.81-3.844 2.891-.142.081 1.453-4.923 3.544-11.121 2.09-6.198 3.824-11.268 3.852-11.268.027 0 .047 3.77.043 8.377Zm-15.417-5.835c.51.008.445.212-.624 1.968l-.97 1.595-.716-2.122c-.394-1.167-.716-2.173-.716-2.235 0-.062.603.09 1.34.338.736.248 1.495.454 1.686.456Zm9.907 1.181c-.396 1.186-.77 2.156-.83 2.156-.131 0-1.73-2.543-1.821-2.897-.041-.158.522-.456 1.522-.804a57.324 57.324 0 0 1 1.719-.582c.072-.016-.194.941-.59 2.127Zm13.453 1.169v1.966h3.982l-.057-1.91-.057-1.91-1.934-.057-1.934-.056v1.967Zm7.737.007v1.96h19.64v-3.92h-19.64v1.96ZM52.049 97.84l1.789 2.983-1.848 5.443c-1.03 3.033-1.902 5.312-1.97 5.148-.368-.883-3.495-10.321-3.495-10.548 0-.148.729-1.473 1.618-2.944 1.66-2.744 1.97-3.213 2.063-3.12.03.03.859 1.397 1.843 3.038Zm64.668 8.015c-.076 1.166-.15 1.358-.721 1.862l-.637.562H91.367c-18.179 0-24.118-.057-24.513-.234-.724-.326-1.085-1.126-1.085-2.402v-1.087H116.8l-.083 1.299Zm-52.774 4.878c.295.272.938.691 1.43.931.831.407 1.204.44 5.504.498l4.613.062v3.893h-9.763c-9.298 0-9.747-.016-9.418-.343.323-.32 6.91-5.487 7.038-5.52.032-.009.3.207.596.479Zm39.08 3.376-.057 1.91-11.754.051-11.754.05v-3.922h23.622l-.057 1.911Z" fill="url(#ana)"/><defs><linearGradient id="ana" x1=".5" y1="0" x2="144.995" y2="67.787" gradientUnits="userSpaceOnUse"><stop stop-color="#208275"/><stop offset="1" stop-color="#2DD4BF"/></linearGradient></defs></svg><svg fill="none" viewBox="0 0 30 30" id="phone" xmlns="http://www.w3.org/2000/svg"><path d="M23.746 25C13.083 25.015 4.99 16.825 5 6.254 5 5.563 5.56 5 6.25 5h3.3c.619 0 1.145.455 1.236 1.067a15.523 15.523 0 0 0 1.269 4.247l.129.277a.884.884 0 0 1-.288 1.09c-1.022.73-1.412 2.199-.616 3.344a14.79 14.79 0 0 0 3.695 3.696c1.146.795 2.615.405 3.344-.616a.883.883 0 0 1 1.091-.289l.276.128a15.481 15.481 0 0 0 4.247 1.27A1.252 1.252 0 0 1 25 20.45v3.299A1.25 1.25 0 0 1 23.749 25h-.003Z" fill="#fff"/></svg><svg fill="currentColor" viewBox="0 0 30 30" id="phone_fill" xmlns="http://www.w3.org/2000/svg"><path d="M23.746 25C13.083 25.015 4.99 16.825 5 6.254 5 5.563 5.56 5 6.25 5h3.3c.619 0 1.145.455 1.236 1.067a15.523 15.523 0 0 0 1.269 4.247l.129.277a.884.884 0 0 1-.288 1.09c-1.022.73-1.412 2.199-.616 3.344a14.79 14.79 0 0 0 3.695 3.696c1.146.795 2.615.405 3.344-.616a.883.883 0 0 1 1.091-.289l.276.128a15.481 15.481 0 0 0 4.247 1.27A1.252 1.252 0 0 1 25 20.45v3.299A1.25 1.25 0 0 1 23.749 25h-.003Z"/></svg><svg version="1.0" viewBox="0 0 256 256" id="pickup" xmlns="http://www.w3.org/2000/svg"><g fill="currentColor"><path d="M39 1C22.8 3.5 4.5 15.8 1 26.5-1.1 33 3.6 39 10.7 39c1.9 0 4.1-1.5 7.5-5 6.8-7 12.1-10.7 18.5-12.5 3-.9 5.7-1.4 5.9-1.2.3.3 63.4 158.8 71.4 179.4l.9 2.1-4.6-2c-15.5-6.8-33.3.7-39.3 16.7-8.2 22 12.7 44.7 35.1 38.1 10-2.9 18.9-11.7 20.5-20.3.5-2.9.9-3.3 2.8-2.6 1.1.4 3.5.7 5.2.6 3.4-.1 112.6-41.8 116.1-44.2 7.3-5.2 3.1-17.1-6-17.1-1.2 0-25 8.8-53.1 19.5-28 10.8-51.3 19.4-51.8 19.3-.5-.2-19.1-46.2-41.4-102.3C71.8 40.3 57.2 4.7 55.6 3.1 52.8.4 47.4-.3 39 1zm66.4 219.1c3.6 4.3 3.5 9.1-.3 13-3.9 3.8-8.7 3.9-13 .3-4.2-3.5-4.4-9.8-.5-13.8 4-3.9 10.3-3.7 13.8.5z"/><path d="M176 11c-2.9.9-68.7 26-74.4 28.4-4.6 1.9-6.5 4.2-6.6 7.6-.1 3.9 18.9 53.2 21.6 55.9 1.4 1.5 3.4 2.4 5.1 2.4 1.5 0 20.1-6.6 41.3-14.7 39.4-15 43-16.8 43-21.7 0-3.2-19.7-54.1-21.7-56-2.4-2.2-5.2-2.9-8.3-1.9zm-13.8 26.7c2.3 2.1 2.4 7.5 0 9.6-2.7 2.5-26.1 10.9-28.3 10.2-4.6-1.5-6.4-7-3.6-10.8 1.5-2.1 23.1-10.5 27.1-10.6 1.6-.1 3.8.6 4.8 1.6zM169 105.6c-20.6 7.9-38.5 14.9-39.8 15.6-2.4 1.2-3.8 4.9-3.3 8.3.2 1.1 4.6 13.2 9.8 27 9.6 25.6 11.8 29.5 16.6 29.5 3.7 0 79-29.1 81.6-31.6 1.8-1.7 2.5-3.3 2.4-5.6-.2-4.7-19.7-54.6-21.9-56.3-1.1-.8-3.2-1.4-4.9-1.4-1.6 0-19.9 6.5-40.5 14.5zm23.5 12.9c3.1 3 3.2 6.5.3 9.2-2.7 2.3-23.7 10.3-27.3 10.3-3.3 0-6.8-4.6-6-8 .3-1.4 1.5-3.2 2.7-4 2.7-1.9 23.7-9.9 26.1-9.9 1-.1 2.9 1 4.2 2.4z"/></g></svg><svg fill="none" viewBox="0 0 80 80" id="pin" xmlns="http://www.w3.org/2000/svg"><path d="M40 5a27.532 27.532 0 0 0-27.5 27.5A27.223 27.223 0 0 0 18.04 49s.75.987.873 1.13L40 75l21.097-24.883c.11-.132.863-1.117.863-1.117l.002-.008A27.212 27.212 0 0 0 67.5 32.5 27.533 27.533 0 0 0 40 5Zm0 37.5a10 10 0 1 1 10-10 10.012 10.012 0 0 1-10 10Z" fill="#fff"/></svg><svg fill="none" viewBox="0 0 15 16" id="plus" xmlns="http://www.w3.org/2000/svg"><path d="M.353 8h14.37M7.538.815v14.37" stroke="#000" stroke-width=".718"/></svg><svg fill="none" viewBox="0 0 170 120" id="re-registration" xmlns="http://www.w3.org/2000/svg"><path fill-rule="evenodd" clip-rule="evenodd" d="M6.717.201C4.411.67 2.276 2.434.964 4.954L.358 6.12l-.07 47.969-.07 47.969.559 1.534c.662 1.82 2.363 3.684 4.214 4.62l1.283.649 31.398.074 31.397.073V114.523H62.87c-6.737 0-7.386.123-8.002 1.511-.512 1.154-.379 2.004.464 2.973l.784.902 28.462.073c20.993.054 28.657-.01 29.209-.245 2.138-.907 2.399-3.581.465-4.754-.649-.393-1.657-.46-6.969-.46h-6.212V109.008l31.398-.073 31.397-.074 1.263-.639c1.611-.815 3.238-2.485 4.032-4.14l.622-1.297V6.12l-.617-1.186c-.951-1.829-2.375-3.28-4.046-4.123l-1.523-.767-77.855-.04C42.923-.02 7.362.07 6.718.2Zm156.504 5.86c.523.36 1.052 1.04 1.235 1.587.243.725.325 11.181.336 43.007l.015 42.05H5.327l.07-42.513.07-42.513.564-.78c.31-.428.855-.933 1.21-1.12.509-.269 17.115-.342 77.857-.346l77.209-.004.914.631Zm-81.996 9.324c-2.156.397-5.91 1.938-7.719 3.169-3.941 2.681-7.168 6.998-8.667 11.594-.662 2.03-.72 2.57-.72 6.628 0 4.06.058 4.6.72 6.629 2.99 9.17 10.896 15.052 20.231 15.052 7.406 0 13.614-3.428 17.722-9.786 2.327-3.602 3.39-7.375 3.387-12.014-.007-9.689-5.911-17.744-15.192-20.726-2.16-.693-7.376-.985-9.762-.546Zm7.84 5.672c6.854 1.816 11.753 8.208 11.831 15.434.014 1.372-.134 3.179-.33 4.014-.593 2.524-2.112 5.377-3.935 7.392-1.93 2.132-3.814 3.386-6.63 4.415-1.67.61-2.426.72-4.93.72-2.506 0-3.261-.11-4.932-.72-2.811-1.027-4.7-2.283-6.616-4.4-3.004-3.32-4.278-6.681-4.272-11.274.01-7.223 4.652-13.473 11.516-15.502 2.097-.62 6.112-.658 8.298-.079Zm-2.247 13.237c-2.588 1.59-4.817 2.891-4.953 2.893-.136.002-.867-.68-1.624-1.515-1.228-1.356-1.493-1.52-2.459-1.52-1.658 0-2.665 1.255-2.559 3.186.031.558 2.934 4.393 4.227 5.584 1.305 1.201 2.045.942 8.535-2.988 3.278-1.986 6.172-3.864 6.43-4.174.768-.92.62-2.602-.315-3.562-1.316-1.351-1.976-1.161-7.282 2.096ZM60.867 67.001c-.998.424-1.602 1.386-1.602 2.554 0 .904.163 1.26.873 1.911l.872.8H109.13l.872-.8c1.177-1.08 1.233-2.695.133-3.826l-.74-.76-23.996-.053c-13.198-.03-24.238.049-24.533.174Zm-.757 11.456c-1.003.955-1.185 1.989-.562 3.183.342.657.825 1.093 1.453 1.313 1.21.424 17.163.487 18.611.074 2.091-.597 2.779-2.921 1.31-4.43l-.785-.807H60.81l-.701.667Zm104.696 20.807c-.003 1.819-.496 3.09-1.427 3.672-.844.529-2.073.538-78.402.538l-77.544.002-.772-.565c-.833-.61-1.324-1.958-1.326-3.647l-.002-1.036h159.474l-.001 1.036ZM95.693 111.76v2.762H74.448v-5.524H95.692v2.762Z" fill="url(#ata)"/><defs><linearGradient id="ata" x1=".217" y1="0" x2="173.28" y2="114.724" gradientUnits="userSpaceOnUse"><stop stop-color="#208275"/><stop offset="1" stop-color="#2DD4BF"/></linearGradient></defs></svg><svg fill="none" viewBox="0 0 104 120" id="register" xmlns="http://www.w3.org/2000/svg"><path fill-rule="evenodd" clip-rule="evenodd" d="M23.13.1c-.284.045-.74.292-1.014.55-.499.47-.499.471-.499 3.818v3.347h-9.74c-7.142 0-9.877.062-10.248.234C.497 8.574.572 4.702.572 62.184v52.819l.564.641.563.641 32.018.098 32.017.098 2.27 1.143a24.547 24.547 0 0 0 4.537 1.755c2.152.581 2.456.613 5.936.621 3.831.008 4.645-.099 7.627-.999 4.67-1.409 9.398-4.819 12.529-9.036 1.293-1.741 3.166-5.595 3.774-7.763 2.489-8.889.378-17.84-5.763-24.444A24.934 24.934 0 0 0 86.2 71.059l-1.737-.57-.098-30.896c-.054-16.992-.12-30.918-.145-30.947a9.734 9.734 0 0 0-.674-.44c-.604-.375-.999-.39-10.33-.39l-9.702-.001V4.82c0-3.499-.208-4.207-1.351-4.603-.507-.176-5.403-.23-19.597-.216-10.407.01-19.153.055-19.436.099Zm36.523 9.58v5.791H25.286V3.888H59.653V9.68Zm-30.506.098v1.963h3.862V7.815H29.148v1.963Zm22.976 0v1.963h3.668V7.815h-3.668v1.963Zm-30.506 5.218v3.254l.565.574.564.574h6.401l.003 1.521c.001.837.055 1.72.119 1.964l.116.442H9.46l-.63.572-.631.573v39.233c0 21.577.064 39.464.142 39.748.079.283.383.681.676.883.513.354 1.427.37 23.702.424l23.169.056.627 1.354c.74 1.6 2.04 3.592 3.367 5.16l.956 1.129H4.434V11.741h17.183v3.255Zm59.08 25.801v29.057h-3.86v-22.47c0-17.003-.057-22.596-.231-22.985-.482-1.076-.468-1.075-11.055-1.075h-9.76v-3.926h3.246c3.029 0 3.275-.028 3.68-.412.695-.658.797-1.208.797-4.313v-2.932h17.184v29.056ZM51.93 21.361v1.963h-9.344c-8.341 0-9.356-.033-9.46-.31-.065-.17-.117-1.054-.117-1.963v-1.653h18.92v1.963Zm-20.846 6.981c3.65 6.487 12.68 8.526 18.844 4.257 1.436-.995 3.09-2.765 3.941-4.22l.66-1.128h18.446v21.694c0 18.361-.041 21.694-.268 21.694-.581 0-3.403 1.083-5.183 1.989l-1.88.956H15.826v3.927h45l-1.251 1.563c-.688.86-1.346 1.743-1.462 1.963-.21.399-.275.4-21.249.4H15.825v3.927h20c15.924 0 19.978.05 19.897.245-.055.135-.333.974-.618 1.865l-.517 1.62H15.825v3.926h38.136l.029 2.307c.025 2.021.254 4.114.57 5.203.094.326-1.009.343-21.249.343H11.964V27.251H30.47l.614 1.091Zm18.039-.097c-.616.638-1.54 1.287-2.585 1.816l-1.626.822h-2.428c-2.39 0-2.45-.011-3.876-.706-1.346-.657-3.476-2.34-3.476-2.748 0-.103 3.13-.178 7.475-.178h7.474l-.958.994Zm-33.298 16.48v1.962h53.288v-3.926H15.825v1.963Zm0 7.656v1.963h53.288v-3.927H15.825v1.964Zm0 7.755V62h53.288v-3.73H15.825v1.865Zm0 7.755v1.963h53.288v-3.927H15.825v1.964Zm68.444 6.56c5.673 1.706 10.425 5.653 13.02 10.812 3.006 5.978 3.09 13.09.224 19.042-6.359 13.203-23.48 16.132-33.621 5.751-3.382-3.461-5.407-7.71-5.998-12.583-1.227-10.118 5.189-19.992 14.888-22.91 2.29-.69 2.98-.764 6.468-.697 2.88.055 3.495.127 5.02.585Zm1.352 5.215c-.212.092-4.839 4.705-10.281 10.25L65.445 100v7.383l.564.574.565.574h7.254l9.909-10.061c10.04-10.196 10.342-10.544 10.126-11.692-.112-.595-5.83-6.577-6.678-6.986-.727-.35-.993-.372-1.564-.125Zm3.572 7.557c0 .11-3.801 4.066-8.446 8.79l-8.446 8.591h-3.188v-2.846l8.638-8.784 8.637-8.785 1.402 1.417c.772.78 1.403 1.507 1.403 1.617Z" fill="url(#aua)"/><defs><linearGradient id="aua" x1=".571" y1="0" x2="130.649" y2="52.306" gradientUnits="userSpaceOnUse"><stop stop-color="#208275"/><stop offset="1" stop-color="#2DD4BF"/></linearGradient></defs></svg><svg fill="none" viewBox="0 0 17 10" id="select-arrow" xmlns="http://www.w3.org/2000/svg"><path d="m1.5 1 7 7 7-7"/></svg><svg fill="none" viewBox="0 0 120 120" id="signature" xmlns="http://www.w3.org/2000/svg"><path fill-rule="evenodd" clip-rule="evenodd" d="M30.822.345c-1.194.451-2.727 1.912-3.273 3.119l-.453 1.002L27 31.54l-.095 27.075-13.422 4.797L.063 68.21.013 88.929c-.038 16.475 0 20.737.19 20.806.132.049 6.676 2.378 14.544 5.177L29.05 120l5.654-2.019 5.653-2.019h29.745c33.398 0 30.715.12 32.467-1.452.544-.489 1.169-1.306 1.476-1.931l.533-1.084.053-22.845.053-22.845 5.468-.063c5.128-.06 5.524-.089 6.359-.474 1.257-.58 2.512-1.805 3.038-2.967.439-.969.45-1.128.45-6.317v-5.323l-.507-.95c-.608-1.14-1.657-2.174-2.825-2.784-.834-.436-1.002-.45-6.42-.506l-5.564-.058-.053-20.854c-.06-23.902.096-21.885-1.846-23.8-1.91-1.885 1.796-1.715-37.043-1.698-31.4.014-34.144.04-34.92.334ZM99.697 4.07c.289.15.627.495.752.77.172.376.228 5.514.228 21.02v20.523h-3.808V15.397H34.806v22.255c0 21.89-.006 22.253-.367 22.139a84.32 84.32 0 0 1-1.856-.659l-1.49-.542-.05-26.587c-.036-19.677.008-26.725.17-27.117.47-1.14-1.803-1.07 34.586-1.078 28.523-.007 33.45.032 33.898.263Zm-49.28 5.526v1.998h23.24l-.055-1.95-.054-1.948-11.566-.049L50.417 7.6v1.998Zm27.034.001v1.996h3.807V7.603h-3.807v1.996Zm15.61 23.288v13.498H75.185l-7.314 2.727c-4.22 1.574-7.593 2.941-7.975 3.231-2.22 1.691-2.335 5.283-.23 7.133.722.634 1.827 1.11 7.613 3.273 6.254 2.34 6.76 2.562 6.642 2.922-.07.214-.17.96-.224 1.657-.126 1.68.286 2.903 1.396 4.135 1.18 1.31 2.418 1.868 4.503 2.03l1.67.13-.052 3.728c-.05 3.584-.066 3.728-.432 3.728-.286 0-1.235-1.273-3.825-5.133-4.055-6.042-4.3-6.273-6.646-6.273-1.184 0-1.484.075-2.294.575a4.927 4.927 0 0 0-1.508 1.505l-.576.93-.058 4.258c-.042 3.105-.117 4.238-.277 4.185-.12-.04-.92-2.868-1.775-6.285-.856-3.417-1.662-6.468-1.792-6.781-.316-.762-1.499-1.804-2.377-2.093-1.156-.381-2.642-.161-3.634.538-.47.33-.905.601-.967.601-.06 0-3.742-1.297-8.18-2.881l-8.07-2.882V19.389H93.062v13.497Zm-50.45-3.897v5.798h46.453V23.191H42.61v5.798Zm42.645-.095v1.901H46.419V26.993h38.837v1.901ZM42.611 40.587v1.997l15.469-.049 15.468-.048.054-1.949.054-1.949H42.611v1.998Zm0 7.698v1.9h15.42v-3.801h-15.42v1.9Zm54.258 3.897v1.996H77.45v-3.992h19.42v1.996Zm7.761 3.85.05 5.75h-4.003V50.173l1.951.054 1.951.054.051 5.75Zm10.433-5.568c1.104.46 1.225 1.015 1.225 5.628 0 4.382-.13 5.048-1.066 5.474-.294.133-1.671.216-3.608.216h-3.132V50.186h2.957c2.166 0 3.136.074 3.624.278Zm-41.42 5.52c0 3.752-.054 4.847-.238 4.846-.13 0-1.009-.287-1.951-.636l-1.714-.635v-6.987l1.809-.707c.994-.389 1.872-.712 1.951-.718.079-.006.143 2.17.143 4.837Zm-7.883 1.947c-.11.11-2.704-.843-3.302-1.214-.463-.288-.583-1.09-.198-1.328.127-.078.962-.417 1.856-.753l1.626-.612.055 1.908c.03 1.05.013 1.948-.037 1.999Zm31.11 1.95v1.901H77.45V57.98h19.42v1.901Zm-55.258 6.584 12.612 4.496v35.972l-10.899 3.885c-5.994 2.137-11.67 4.157-12.612 4.49l-1.714.605-12.565-4.49-12.565-4.491-.048-17.98-.049-17.98 12.519-4.482a3320.228 3320.228 0 0 1 12.613-4.502c.052-.01 5.771 2.004 12.708 4.477Zm39.09-.135c.51.51.556.668.556 1.901v1.346h-1.133c-1.362 0-2.04-.276-2.403-.979-1.016-1.961 1.425-3.82 2.98-2.268Zm12.313 10.993-.049 11.55-17.469.048-17.468.048.049-9.649c.032-6.272.116-9.648.24-9.648.104 0 .918 2.866 1.808 6.37.89 3.502 1.794 6.667 2.008 7.03.804 1.365 2.855 2.244 4.414 1.893 1.015-.228 2.15-1.111 2.654-2.063.423-.8.443-1.02.443-4.785 0-2.17.052-4.082.116-4.248.063-.165.307-.3.541-.3.346 0 1.045.927 3.708 4.922 1.804 2.707 3.51 5.14 3.789 5.407 1.704 1.63 4.974 1.358 6.42-.536.916-1.199 1.02-1.796 1.029-5.944l.008-3.85h3.808v-3.991h-3.76l-.094-1.569c-.052-.862-.157-1.718-.235-1.9-.131-.312.129-.334 3.975-.334h4.114l-.049 11.55Zm7.657 11.026c-.004 21.103-.025 22.602-.333 22.981a2.805 2.805 0 0 1-.745.618c-.3.153-7.078.208-24.368.199l-23.953-.013 1.143-.433a313.29 313.29 0 0 1 3.379-1.243l2.237-.811V108.358h7.7c8.502 0 9.263-.075 10.336-1.015 1.174-1.03 1.374-1.74 1.374-4.878 0-2.276-.061-2.892-.352-3.53-.446-.982-1.543-1.89-2.603-2.157-.526-.132-3.638-.207-8.646-.207h-7.823l.055-1.853.054-1.854 19.371-.048 19.371-.048V65.774h3.808l-.005 22.575ZM22.905 69.84c-3.784.919-6.82 4.311-7.335 8.196-.13.982-.181 6.103-.145 14.448.054 12.204.077 12.965.414 13.593.503.94.867 1.312 1.738 1.778.746.4.959.409 10.851.469 7.158.043 10.385-.003 11.104-.159 1.27-.277 2.554-1.424 2.868-2.564.143-.518.209-4.927.207-13.877-.002-14.268-.028-14.666-1.075-16.821-1.126-2.318-4.073-4.572-6.688-5.116-1.398-.291-10.69-.25-11.939.053Zm12.324 4.178c1.165.52 2.277 1.543 2.807 2.58.39.762.764 2.65.766 3.862l.002.713H19.385v-1.487c0-2.09.396-3.118 1.7-4.423 1.615-1.614 1.843-1.662 7.956-1.68 5.053-.014 5.208-.003 6.188.435Zm3.575 20.748v9.6H19.385v-19.2h19.419v9.6Zm-15.611-3.898v1.901H27v7.795h3.998v-7.795h3.808V88.967H23.193v1.901Zm50.45 11.597v1.901H58.032v-3.802h15.611v1.901Z" fill="url(#awa)"/><defs><linearGradient id="awa" x1="0" y1="0" x2="144.495" y2="67.787" gradientUnits="userSpaceOnUse"><stop stop-color="#208275"/><stop offset="1" stop-color="#2DD4BF"/></linearGradient></defs></svg><svg fill="none" viewBox="0 0 18 18" id="star-empty" xmlns="http://www.w3.org/2000/svg"><path d="M8.26 1.506c.255-.675 1.224-.675 1.48 0l1.657 4.587a.792.792 0 0 0 .74.507h4.07c.752 0 1.08.936.489 1.394L13.8 10.6a.774.774 0 0 0-.258.873l1.058 4.482c.257.72-.576 1.339-1.207.896L9.46 14.354a.8.8 0 0 0-.92 0L4.607 16.85c-.63.444-1.464-.176-1.207-.895l1.058-4.482A.774.774 0 0 0 4.2 10.6L1.304 7.994C.712 7.536 1.042 6.6 1.792 6.6h4.07a.791.791 0 0 0 .74-.507L8.26 1.506h0Z" fill="#fff" stroke="#7D7D7D" stroke-linecap="round" stroke-linejoin="round"/></svg><svg fill="none" viewBox="0 0 16 16" id="star-fill" xmlns="http://www.w3.org/2000/svg"><path d="M7.26.506c.255-.675 1.224-.675 1.48 0l1.657 4.587a.792.792 0 0 0 .74.507h4.07c.752 0 1.08.936.489 1.394L12.8 9.6a.775.775 0 0 0-.258.873l1.058 4.482c.257.72-.576 1.339-1.207.896L8.46 13.354a.8.8 0 0 0-.92 0L3.607 15.85c-.63.444-1.464-.175-1.207-.895l1.058-4.482A.774.774 0 0 0 3.2 9.6L.304 6.994C-.288 6.536.042 5.6.792 5.6h4.07a.791.791 0 0 0 .74-.507L7.26.506Z" fill="#FBC400"/></svg><svg fill="none" viewBox="0 0 121 120" id="tech-support" xmlns="http://www.w3.org/2000/svg"><path fill-rule="evenodd" clip-rule="evenodd" d="M69.714.612c-1.79.919-2.552 2.085-3.291 5.044-.188.75-.274.828-1.253 1.145-.578.187-2.038.855-3.245 1.483L59.73 9.427l-1.52-.753c-1.351-.67-1.684-.753-2.986-.753-2.055 0-3.027.532-5.008 2.74-2.219 2.475-2.608 3.278-2.606 5.379.002 1.806.12 2.161 1.362 4.06l.647.99-.704 1.936c-.601 1.653-.776 1.952-1.198 2.047-2.45.548-3.67 1.233-4.656 2.61-.9 1.256-1.141 2.34-1.141 5.114 0 2.99.371 4.23 1.667 5.56.925.95 1.928 1.466 3.587 1.848l1.08.248.576 1.693.577 1.693-.814 1.2c-1.02 1.502-1.242 2.038-1.392 3.352-.24 2.1.949 4.386 3.74 7.192 1.799 1.809 4.206 2.094 6.839.81l1.402-.684 1.926 1.052c1.06.579 2.578 1.292 3.373 1.584.796.292 1.513.59 1.593.66.081.071.324.785.54 1.587.466 1.726 1.133 2.815 2.264 3.702 1.197.937 2.441 1.251 4.956 1.251 2.449 0 3.69-.298 4.86-1.168 1.099-.817 1.612-1.641 2.275-3.653l.579-1.756 1.782-.653c.981-.36 2.427-1.017 3.213-1.46l1.43-.805 1.511.732c1.319.64 1.697.734 2.959.738 2.136.008 3.197-.587 5.216-2.925 1.976-2.288 2.34-3.005 2.456-4.844.107-1.68-.144-2.512-1.294-4.285l-.758-1.169.397-1.01c.217-.555.528-1.421.69-1.925.285-.893.32-.922 1.372-1.153 2.439-.535 4.288-2.007 4.922-3.918.355-1.069.425-5.638.105-6.82-.549-2.03-2.372-3.638-4.757-4.197-.686-.16-1.277-.322-1.313-.358-.035-.036-.321-.79-.636-1.674l-.571-1.609.85-1.255c1.717-2.532 1.853-5.007.399-7.206-1.152-1.74-3.292-3.92-4.328-4.407-1.618-.76-3.303-.685-5.213.235l-1.49.719-2.411-1.27c-1.326-.699-2.9-1.428-3.498-1.621l-1.087-.352-.414-1.61c-.558-2.17-1.427-3.36-3.082-4.222C76.766 0 76.756 0 73.835 0c-2.887 0-2.945.009-4.12.612Zm6.117 7.16c.476 2.131.89 3.047 1.573 3.476.226.142 1.163.482 2.083.756 2.089.622 4.309 1.687 6.28 3.013 2.034 1.37 2.535 1.371 5.16.018 1.073-.552 2.01-.93 2.083-.841.072.09.503.63.957 1.202l.826 1.04-.96 1.337c-2.099 2.92-2.166 3.312-1.02 5.94.415.953.947 2.401 1.183 3.218.815 2.821.976 2.972 3.99 3.748l2.073.533.056 1.589.055 1.589-1.983.456c-3.172.73-3.526 1.032-4.292 3.67-.285.98-.869 2.57-1.297 3.534-1.095 2.461-1.023 3.047.672 5.491l1.273 1.836-.973 1.153c-.535.635-1.036 1.154-1.113 1.154-.077 0-.871-.413-1.765-.918-1.216-.686-1.89-.94-2.685-1.007-.99-.083-1.144-.033-2.314.752-1.784 1.197-4.458 2.453-6.341 2.977-2.377.662-2.715 1.058-3.41 3.995l-.552 2.334-1.538-.057-1.538-.056-.527-2.16c-.29-1.19-.695-2.392-.9-2.674-.386-.533-1.13-.881-3.417-1.601-1.63-.513-4.051-1.732-5.368-2.704-1.12-.825-2.045-1.258-2.694-1.258-.25 0-1.344.446-2.428.99-1.085.545-2.04.99-2.124.99-.084 0-.554-.524-1.044-1.165l-.892-1.166.638-.864c2.425-3.282 2.51-3.728 1.272-6.553-.43-.98-.965-2.488-1.19-3.35-.584-2.239-1.134-2.714-3.871-3.338l-2.064-.47v-3.276l.723-.196c.398-.107 1.326-.349 2.064-.537 1.945-.495 2.505-1.092 3.115-3.318.265-.968.874-2.616 1.354-3.664 1.188-2.593 1.14-3.135-.477-5.458-.653-.937-1.184-1.813-1.179-1.946.005-.134.426-.722.937-1.307l.928-1.064 2.1 1.13c2.63 1.415 3.023 1.41 5.28-.077 1.903-1.254 3.642-2.07 5.735-2.694 1.896-.565 2.43-.896 2.824-1.749.235-.509 1.086-3.941 1.086-4.381 0-.056.716-.101 1.59-.1h1.591l.454 2.029Zm-3.992 12.833c-2.064.379-4.724 1.757-6.222 3.223-1.55 1.52-2.806 3.707-3.34 5.82-.385 1.528-.39 4.564-.011 6.103 1.302 5.285 6.197 9.2 11.503 9.2 2.073 0 3.252-.29 5.316-1.306 8.333-4.106 9.04-15.89 1.27-21.185-2.305-1.571-5.85-2.343-8.516-1.855Zm4.688 6.323c1.197.595 2.258 1.684 2.938 3.016.46.903.535 1.277.537 2.73.002 1.446-.074 1.842-.537 2.812-1.497 3.129-5.278 4.53-8.262 3.061-1.27-.625-2.537-1.953-3.114-3.264-.58-1.318-.582-3.74-.004-5.028.799-1.783 1.781-2.752 3.62-3.572 1.135-.506 3.559-.383 4.822.245Zm-41.33 41.397c-6.83.674-14.979 4.254-21.312 9.361-.624.504-3.59 2.214-6.591 3.801C1.53 84.535.792 85.074.547 86.415c-.069.374-.063.888.013 1.143.075.254 3.577 7.09 7.78 15.191 8.445 16.275 8.148 15.803 9.916 15.724.868-.039 1.452-.359 6.582-3.608 3.097-1.961 5.947-3.702 6.335-3.868 1.422-.61 2.08-.444 5.828 1.473 9.316 4.764 17.893 7.525 23.39 7.53 1.693.001 5.93-.478 8.717-.986 16.29-2.97 34.142-12.791 47.492-26.126 2.087-2.084 2.575-2.69 3.182-3.951.708-1.471.717-1.52.717-3.887 0-2.385-.004-2.404-.749-3.953-2.221-4.615-7.546-6.912-12.191-5.26-2.033.724-16.03 9.065-21.407 12.758-1.037.712-1.909 1.271-1.937 1.242-.028-.029.082-.494.244-1.034.806-2.673-.62-5.577-3.463-7.054-1.75-.909-3.701-1.323-8.294-1.76-6.454-.613-10.332-1.379-13.217-2.61-1.136-.484-1.765-.937-3.085-2.22-.912-.885-2.075-1.904-2.584-2.262-1.24-.873-4.888-2.642-6.742-3.268-3.442-1.164-8.109-1.676-11.878-1.304Zm7.783 6.204c2.313.516 3.98 1.12 5.938 2.148 1.532.806 2.28 1.373 3.963 3.007 2.226 2.16 3.574 2.994 6.394 3.956 2.862.976 8.548 1.938 13.016 2.2 1.167.069 2.719.211 3.449.317 1.449.21 3.204.89 3.204 1.243 0 .122-.64.856-1.423 1.632-2.237 2.217-5.647 3.768-10.485 4.771-2.56.531-7.752.484-10.576-.096-1.176-.241-2.643-.617-3.26-.835-3.052-1.078-4.857.079-4.745 3.043.03.82 1.22 1.95 2.624 2.492 4.892 1.892 16.253 2.116 24.78.49 3.896-.743 8.428-2.305 10.756-3.707.607-.365 3.88-2.448 7.274-4.629 5.695-3.658 13.677-8.42 15.238-9.09 1.604-.688 3.944-.016 5.029 1.445.729.98.851 2.448.298 3.562-.427.86-3.27 3.673-6.585 6.516-4.043 3.468-9.523 7.43-13.787 9.969-2.288 1.362-8.94 4.701-11.405 5.724-8.63 3.582-18.971 5.797-24.174 5.177-4.877-.58-11.135-2.843-18.897-6.833-4.154-2.135-5.467-2.563-7.425-2.42l-1.35.098-6.026-11.544c-3.314-6.35-6.026-11.62-6.026-11.71 0-.343 3.468-2.527 6.075-3.829 3.698-1.846 6.68-2.797 10.798-3.443 1.142-.18 6.005.05 7.328.346ZM19.674 96.164c3.234 6.086 5.896 11.137 5.915 11.225.054.24-6.11 4.103-6.275 3.933-.15-.154-11.906-22.795-11.97-23.055-.06-.234 6.113-3.49 6.292-3.319.087.084 2.804 5.13 6.038 11.216Z" fill="url(#aza)"/><defs><linearGradient id="aza" x1=".5" y1="0" x2="144.995" y2="67.787" gradientUnits="userSpaceOnUse"><stop stop-color="#208275"/><stop offset="1" stop-color="#2DD4BF"/></linearGradient></defs></svg><svg fill="none" viewBox="0 0 77 56" id="v" xmlns="http://www.w3.org/2000/svg"><path d="M74 27 50.5 50.5 3 3" stroke="currentColor" stroke-width="7"/></svg><svg fill="none" viewBox="0 0 24 24" id="wallet" xmlns="http://www.w3.org/2000/svg"><path fill-rule="evenodd" clip-rule="evenodd" d="M1.025 6.72c0-1.458 1.153-2.902 2.576-3.224L14.05 1.132c1.616-.366 2.926.681 2.926 2.338v2.556c0 .04 0 .081-.002.122l1.038.109c1.648.173 2.983 1.656 2.983 3.313v2.64c1.139.542 1.95 1.728 1.95 3.02 0 1.291-.811 2.307-1.95 2.61v2.455c0 1.657-1.335 2.86-2.983 2.687L3.989 21.508c-1.648-.173-2.984-1.657-2.984-3.314V7.47c0-.16.013-.314.037-.464a2.348 2.348 0 0 1-.017-.284Zm19.645 8.973c-.173.151-.413.221-.67.221l-.994-.104v.006l-1.017-.107a1.135 1.135 0 0 1-.995-1.104c0-.553.446-.954.995-.896l1.686.177.325.036c.209.045.395.127.545.246.106.089.197.197.266.317.081.154.127.336.127.546a.929.929 0 0 1-.122.487.857.857 0 0 1-.146.175Zm-1.665-3.877-1.016-.107c-1.648-.173-2.984 1.03-2.984 2.687 0 1.656 1.336 3.14 2.984 3.313l1.017.107v2.27a.881.881 0 0 1-.995.896L3.989 19.508a1.135 1.135 0 0 1-.994-1.105V7.678c0-.552.445-.953.994-.895l14.022 1.474c.55.057.995.552.995 1.104v2.455ZM5.878 4.98l9.148.962V3.91c0-.552-.437-.901-.976-.78l-8.172 1.85Z" fill="currentColor"/></svg></svg>